<?xml version="1.0" encoding="utf-8"?>
<!-- Generator: Adobe Illustrator 18.1.1, SVG Export Plug-In . SVG Version: 6.00 Build 0)  -->
<svg version="1.1" id="Layer_1" xmlns="http://www.w3.org/2000/svg" xmlns:xlink="http://www.w3.org/1999/xlink" x="0px" y="0px"
	 viewBox="0 0 247 91" enable-background="new 0 0 247 91" xml:space="preserve">
<g>
	<path fill="#333333" d="M47.4,0.4c0,29.6,0,59.2,0,88.9c0.2,0,0.4,0.1,0.5,0.1c1.8,0,1.5,0.2,1.5-1.5c0-28.6,0-57.2,0-85.9
		c0-1.9,0-1.9-1.9-1.7C47.5,0.3,47.5,0.3,47.4,0.4z"/>
	<g>
		<path fill="#333333" d="M229.1,58.1c0.1,0,0.1,0,0.2,0c0.1,0.2,0.2,0.5,0.2,0.7c0.5,1.9,1,3.9,1.6,5.8c2.9,8.3,5.8,16.6,8.7,24.9
			c0.2,0.5,0.4,0.6,0.9,0.6c1.6,0,3.1,0,4.7,0c1,0,1,0,1-1c0-14.3,0-28.6,0-42.9c0-2,0-3.9,0-5.9c0-0.9,0-0.9-1-0.9
			c-1.7,0-3.5,0-5.2,0c-0.3,0-0.5,0-0.9,0c0,10.8,0,21.4,0,32.1c-0.2-0.2-0.3-0.4-0.4-0.7c-0.5-2-0.9-4-1.4-6
			c-2.4-8.3-4.8-16.5-7.2-24.7c-0.2-0.5-0.4-0.7-0.9-0.7c-2.2,0-4.4,0-6.7,0c-0.2,0-0.4,0-0.7,0c0,0.4,0,0.7,0,1.1
			c0,16.2,0,32.4,0,48.6c0,0.1,0,0.3,0,0.4c-0.1,0.5,0.2,0.7,0.7,0.7c1.8,0,3.5,0,5.3,0c1,0,1.1,0,1.1-1c0-10,0-20.1,0-30.1
			C229.1,58.7,229.1,58.4,229.1,58.1z"/>
		<path fill="#333333" d="M125.4,90.1c0-17,0-33.8,0-50.7c-2.3,0-4.6,0-7.1,0c0,10.7,0,21.3,0,32c-0.2-0.1-0.2-0.3-0.3-0.4
			c-0.5-2-0.9-4.1-1.5-6.1c-2.4-8.3-4.8-16.6-7.2-24.9c-0.1-0.5-0.3-0.7-0.9-0.7c-2.3,0-4.5,0-6.8,0c-0.2,0-0.4,0-0.6,0.1
			c0,16.9,0,33.8,0,50.7c2.3,0,4.6,0,7,0c0-10.8,0-21.5,0-32.2c0.2,0.1,0.2,0.2,0.3,0.3c0.6,2.3,1.1,4.5,1.9,6.8
			c2,5.9,4.1,11.7,6.1,17.6c0.8,2.3,1.6,4.6,2.4,6.9c0.1,0.3,0.4,0.7,0.6,0.7C121.4,90.1,123.4,90.1,125.4,90.1z"/>
		<path fill="#333333" d="M149.4,57.1c2.1,0,4.1,0,6.2,0c0.6,0,0.7-0.2,0.7-0.7c0-3,0-6.1,0-9.1c0-3.3-1.5-5.8-4.4-7.2
			c-4.1-2-8.3-1.9-12.4,0c-3.5,1.6-5.3,4.3-5.3,8.4c0.1,11.1,0,22.1,0,33.2c0,3.2,1.4,5.6,4.1,7.2c3.7,2.2,7.7,2.5,11.8,1.3
			c4.1-1.2,6.1-4.1,6.1-8.4c0-2.8,0-5.6,0-8.4c0-0.3,0-0.6,0-0.9c-2.3,0-4.6,0-6.8,0c0,0.3,0,0.6,0,0.9c0,3.1,0,6.2,0,9.3
			c0,1.1-0.6,2-1.7,2.3c-0.8,0.2-1.7,0.3-2.5,0.3c-2-0.1-2.9-1.1-2.9-3.2c0-9.8,0-19.5,0-29.3c0-1.8,0-3.6,0-5.5
			c0-1.3,0.6-2.2,1.8-2.6c1.3-0.4,2.5-0.4,3.8,0.1c1,0.4,1.6,1.2,1.5,2.3c0,0.9,0,1.7,0,2.6C149.4,52,149.4,54.5,149.4,57.1z"/>
		<path fill="#333333" d="M57.6,39.3c0,0.4,0,0.7,0,1.1c0,13.2,0,26.4,0,39.6c0,3.1,0,6.2,0,9.3c0,0.5,0.1,0.8,0.7,0.8
			c5.6,0,11.2,0,16.9,0c0.5,0,0.6-0.2,0.6-0.6c0-1.3,0-2.6,0-3.9c0-0.6-0.2-0.7-0.8-0.7c-2.7,0-5.4,0-8.1,0c-1.3,0-1.2,0.2-1.2-1.2
			c0-14.4,0-28.8,0-43.2c0-0.3,0-0.7,0-1.1C62.9,39.3,60.3,39.3,57.6,39.3z"/>
		<path fill="#333333" d="M196.5,39.3c0,17,0,33.9,0,50.8c0.1,0,0.2,0,0.3,0c5.7,0,11.5,0,17.2,0c0.5,0,0.6-0.2,0.6-0.7
			c0-1.3,0-2.6,0-3.8c0-0.7-0.2-0.8-0.8-0.8c-2.8,0-5.5,0-8.3,0c-1.1,0-1.1,0-1.1-1.1c0-14.4,0-28.8,0-43.3c0-0.2,0-0.4,0-0.6
			c0-0.5-0.2-0.6-0.6-0.6c-1.4,0-2.9,0-4.3,0C198.6,39.3,197.6,39.3,196.5,39.3z"/>
		<path fill="#333333" d="M83.5,39.3c0,0.4,0,0.7,0,1c0,11,0,22.1,0,33.1c0,5.3,0,10.6,0,15.8c0,0.6,0.2,0.8,0.8,0.8
			c2.1,0,4.2,0,6.4,0c0.3,0,0.5,0,0.9,0c0-0.4,0-0.7,0-1.1c0-13.8,0-27.6,0-41.4c0-2.5,0-5,0-7.5c0-0.5-0.2-0.7-0.7-0.7
			c-1.4,0-2.9,0-4.3,0C85.5,39.3,84.6,39.3,83.5,39.3z"/>
		<path fill="#333333" d="M229.1,58.1c0,0.3,0,0.6,0,0.9c0,10,0,20.1,0,30.1c0,1,0,1-1.1,1c-1.8,0-3.5,0-5.3,0
			c-0.5,0-0.7-0.2-0.7-0.7c0-0.1,0-0.3,0-0.4c0-16.2,0-32.4,0-48.6c0-0.3,0-0.7,0-1.1c0.3,0,0.5,0,0.7,0c2.2,0,4.4,0,6.7,0
			c0.5,0,0.8,0.2,0.9,0.7c2.4,8.2,4.8,16.5,7.2,24.7c0.6,2,1,4,1.4,6c0.1,0.2,0.2,0.5,0.4,0.7c0-10.7,0-21.3,0-32.1
			c0.3,0,0.6,0,0.9,0c1.7,0,3.5,0,5.2,0c1,0,1,0,1,0.9c0,2,0,3.9,0,5.9c0,14.3,0,28.6,0,42.9c0,1,0,1-1,1c-1.6,0-3.1,0-4.7,0
			c-0.5,0-0.7-0.1-0.9-0.6c-2.9-8.3-5.8-16.6-8.7-24.9c-0.7-1.9-1.1-3.9-1.6-5.8c-0.1-0.2-0.1-0.5-0.2-0.7
			C229.3,58.1,229.2,58.1,229.1,58.1z"/>
		<path fill="#333333" d="M125.4,90.1c-2,0-4,0-5.9,0c-0.2,0-0.5-0.4-0.6-0.7c-0.8-2.3-1.6-4.6-2.4-6.9c-2-5.9-4.1-11.7-6.1-17.6
			c-0.7-2.2-1.3-4.5-1.9-6.8c0-0.1-0.1-0.2-0.3-0.3c0,10.7,0,21.4,0,32.2c-2.4,0-4.7,0-7,0c0-16.9,0-33.8,0-50.7
			c0.2,0,0.4-0.1,0.6-0.1c2.3,0,4.5,0,6.8,0c0.5,0,0.7,0.2,0.9,0.7c2.4,8.3,4.8,16.6,7.2,24.9c0.6,2,1,4.1,1.5,6.1
			c0,0.1,0.1,0.3,0.3,0.4c0-10.6,0-21.3,0-32c2.4,0,4.7,0,7.1,0C125.4,56.2,125.4,73.1,125.4,90.1z"/>
		<path fill="#333333" d="M187.1,64.7c0,5.5-0.1,11.1,0,16.6c0.1,3.7-1.6,6.3-4.8,7.8c-4.8,2.3-9.6,2.2-14.2-0.5
			c-2.6-1.5-3.9-3.9-3.9-7c0-11.3,0-22.6,0-33.9c0-3.7,1.8-6.1,5-7.6c4.7-2.2,9.4-2.1,13.9,0.5c2.7,1.6,4.1,3.9,4.1,7.1
			C187.1,53.4,187.1,59.1,187.1,64.7z M179.1,64.7c0-5.9,0-11.8,0-17.7c0-1.4-0.6-2.3-2-2.5c-0.8-0.2-1.7-0.2-2.5-0.1
			c-1.5,0.2-2.2,1.2-2.2,2.7c0,11.7,0,23.5,0,35.2c0,1.5,0.7,2.4,2.2,2.7c0.8,0.1,1.6,0.1,2.3,0c1.5-0.3,2.2-1.2,2.2-2.8
			C179.1,76.4,179.1,70.6,179.1,64.7z"/>
		<path fill="#333333" d="M149.4,57.1c0-2.6,0-5.1,0-7.6c0-0.9,0-1.7,0-2.6c0-1.1-0.5-1.9-1.5-2.3c-1.2-0.5-2.5-0.5-3.8-0.1
			c-1.2,0.4-1.8,1.3-1.8,2.6c0,1.8,0,3.6,0,5.5c0,9.8,0,19.5,0,29.3c0,2,0.9,3.1,2.9,3.2c0.8,0,1.7,0,2.5-0.3
			c1.1-0.3,1.7-1.2,1.7-2.3c0-3.1,0-6.2,0-9.3c0-0.3,0-0.5,0-0.9c2.3,0,4.5,0,6.8,0c0,0.3,0,0.6,0,0.9c0,2.8,0,5.6,0,8.4
			c0,4.3-2,7.2-6.1,8.4c-4.1,1.2-8.1,0.9-11.8-1.3c-2.7-1.6-4.1-4-4.1-7.2c0-11.1,0.1-22.1,0-33.2c0-4,1.7-6.8,5.3-8.4
			c4.1-1.8,8.3-2,12.4,0c2.9,1.4,4.4,3.9,4.4,7.2c0,3,0,6.1,0,9.1c0,0.5-0.1,0.7-0.7,0.7C153.6,57,151.5,57.1,149.4,57.1z"/>
		<path fill="#333333" d="M57.6,39.3c2.7,0,5.3,0,8,0c0,0.4,0,0.7,0,1.1c0,14.4,0,28.8,0,43.2c0,1.4-0.1,1.2,1.2,1.2
			c2.7,0,5.4,0,8.1,0c0.6,0,0.8,0.1,0.8,0.7c0,1.3,0,2.6,0,3.9c0,0.5-0.1,0.7-0.6,0.6c-5.6,0-11.2,0-16.9,0c-0.6,0-0.7-0.2-0.7-0.8
			c0-3.1,0-6.2,0-9.3c0-13.2,0-26.4,0-39.6C57.6,40.1,57.6,39.8,57.6,39.3z"/>
		<path fill="#333333" d="M196.5,39.3c1,0,2,0,3,0c1.4,0,2.9,0,4.3,0c0.4,0,0.6,0.1,0.6,0.6c0,0.2,0,0.4,0,0.6c0,14.4,0,28.8,0,43.3
			c0,1.1,0,1.1,1.1,1.1c2.8,0,5.5,0,8.3,0c0.6,0,0.9,0.1,0.8,0.8c-0.1,1.3,0,2.6,0,3.8c0,0.5-0.1,0.7-0.6,0.7c-5.7,0-11.5,0-17.2,0
			c-0.1,0-0.1,0-0.3,0C196.5,73.2,196.5,56.3,196.5,39.3z"/>
		<path fill="#333333" d="M83.5,39.3c1.1,0,2.1,0,3,0c1.4,0,2.9,0,4.3,0c0.6,0,0.7,0.2,0.7,0.7c0,2.5,0,5,0,7.5
			c0,13.8,0,27.6,0,41.4c0,0.3,0,0.7,0,1.1c-0.3,0-0.6,0-0.9,0c-2.1,0-4.2,0-6.4,0c-0.7,0-0.8-0.2-0.8-0.8c0-5.3,0-10.6,0-15.8
			c0-11,0-22.1,0-33.1C83.5,40,83.5,39.7,83.5,39.3z"/>
	</g>
	<path fill="#333333" d="M47.4,0.4c0.1,0,0.1-0.1,0.1-0.1c1.9-0.2,1.9-0.2,1.9,1.7c0,28.6,0,57.2,0,85.9c0,1.6,0.3,1.4-1.5,1.5
		c-0.2,0-0.3,0-0.5-0.1C47.4,59.6,47.4,30,47.4,0.4z"/>
	<g>
		<path fill="#333333" d="M10.8,89.2c0-0.4,0-0.6,0-0.9c0-4.7,0-9.5,0-14.2c0-1.3,0-1.3-1.3-1.2c-0.1,0-0.2,0-0.4,0.1
			c0,0.3,0,0.5,0,0.8c0,1.8,0,3.7,0,5.5c0,1.1-0.1,1.2-1.4,0.9c0-2.4,0-4.8,0-7.3c-0.3,0-0.6,0-0.8,0c-0.7-0.1-0.9,0.2-0.9,0.9
			c0,1.5,0,3,0,4.5c0,3.4,0,6.9,0,10.3c0,0.3-0.2,0.7,0.4,0.7c0.4,0,0.9,0,1.4,0c0-2.4,0-4.7,0-7.1c0.5,0,0.9,0,1.4,0
			c0,2.4,0,4.7,0,7C9.8,89.2,10.3,89.2,10.8,89.2z"/>
		<path fill="#333333" d="M12.5,72.9c0,0.3,0,0.6,0,0.9c0,1.5,0,3,0,4.4c0,3.5,0,6.9,0,10.4c0,0.6,0.2,0.8,0.8,0.7
			c0.9,0,1.7,0,2.6,0c0.2,0,0.5-0.2,0.5-0.3c0.3-1,0-1.3-1-1.3c-0.1,0-0.3,0-0.4,0c-0.5,0.1-0.7-0.2-0.7-0.7c0-1.5,0-3,0-4.4
			c0-0.6,0.2-0.8,0.8-0.7c0.2,0,0.7,0,0.7-0.1c0.1-0.5,0.1-0.9,0-1.4c0-0.1-0.5-0.2-0.7-0.2c-0.6,0-0.8-0.2-0.8-0.8
			c0-1.1,0-2.1,0-3.2c0-1.6-0.1-1.4,1.4-1.4c0.3,0,0.8-0.1,0.8-0.2c0.1-0.4,0-0.9,0-1.4c0-0.1-0.2-0.1-0.3-0.1
			C14.8,72.9,13.7,72.9,12.5,72.9z"/>
		<path fill="#333333" d="M39,72.9c-1,0-1.9,0-2.9,0c-0.7,0-1,0.1-1,0.9c0,4.9,0,9.8,0,14.6c0,0.2,0,0.5,0,0.8c1.3,0,2.6,0,3.8,0
			c0.2-1.6,0.2-1.6-1.3-1.6c-0.1,0-0.1,0-0.2,0c-0.5,0.1-0.7-0.2-0.7-0.7c0-1.3,0-2.6,0-3.8c0-0.4,0-0.9,0-1.4c0.6,0,1,0,1.5,0
			c0-0.6,0-1.1,0-1.7c-0.3,0-0.5-0.1-0.6,0c-0.7,0.1-0.9-0.2-0.9-0.9c0.1-1.2,0.1-2.4,0-3.6c0-0.8,0.2-0.9,1-0.9
			c1.4,0.1,1.4,0,1.3-1.4C39.1,73.2,39.1,73.1,39,72.9z"/>
		<path fill="#333333" d="M27.6,72.9c-1.5,0-2.8,0-4.1,0c-0.8,0-0.3,0.7-0.4,1.1c-0.1,0.4,0,0.7,0.5,0.6c0.9-0.1,0.9,0.3,0.9,1
			c0,4.3,0,8.5,0,12.8c0,0.7,0.2,0.8,0.9,0.8c0.6,0,0.9-0.1,0.8-0.8c0-4.3,0-8.6,0-12.9c0-0.7,0.1-1,0.9-0.9
			c0.4,0.1,0.6-0.1,0.6-0.5C27.5,73.8,27.6,73.4,27.6,72.9z"/>
		<path fill="#333333" d="M0,72.9c1.5,0,3.1,0,4.7,0c0,0.5,0.1,1,0,1.4c0,0.2-0.4,0.4-0.6,0.4c-0.6,0-0.7,0.2-0.7,0.8
			c0,4.2,0,8.5,0,12.7c0,1.1,0.3,1.1-1.2,1.1c-0.1,0-0.3,0-0.5-0.1c0-0.3,0-0.5,0-0.8c0-4.2,0-8.5,0-12.7c0-1,0-1-1-1
			c-0.2,0-0.4,0-0.7,0C0,74.1,0,73.5,0,72.9z"/>
		<path fill="#333333" d="M10.8,89.2c-0.5,0-1,0-1.6,0c0-2.3,0-4.7,0-7c-0.5,0-0.9,0-1.4,0c0,2.3,0,4.7,0,7.1c-0.5,0-0.9,0-1.4,0
			c-0.5,0-0.4-0.4-0.4-0.7c0-3.4,0-6.9,0-10.3c0-1.5,0-3,0-4.5c0-0.7,0.2-1,0.9-0.9c0.2,0,0.5,0,0.8,0c0,2.5,0,4.9,0,7.3
			c1.2,0.4,1.4,0.3,1.4-0.9c0-1.8,0-3.7,0-5.5c0-0.3,0-0.5,0-0.8c0.2,0,0.3-0.1,0.4-0.1c1.3-0.1,1.3-0.1,1.3,1.2c0,4.7,0,9.5,0,14.2
			C10.8,88.6,10.8,88.9,10.8,89.2z"/>
		<path fill="#333333" d="M30.6,89.2c-0.1,0-0.2,0.1-0.3,0.1c-1.4,0.1-1.4,0.1-1.4-1.2c0-4.7,0-9.4,0-14.1c0-0.3,0-0.6,0-1
			c1,0,2-0.1,2.9,0c0.8,0.1,1.4,0.7,1.5,1.5c0.1,1.8,0.1,3.6,0.1,5.4c0,0.5-0.4,1-0.6,1.6c0.7,0.6,0.8,1.5,0.8,2.5
			c0,1.2,0,2.3,0,3.5c0,0.3,0.1,0.6,0.1,0.9c0,0.3,0,0.8-0.1,0.9c-0.5,0.3-1.2,0-1.4-0.4c-0.2-0.5-0.3-1.1-0.3-1.6
			c0-1.3,0-2.6,0-3.8c0-0.2,0.1-0.5-0.1-0.6c-0.2-0.2-0.5-0.4-0.8-0.5c-0.1,0.2-0.4,0.4-0.4,0.6c0,1.9,0,3.8,0,5.7
			C30.6,88.7,30.6,89,30.6,89.2z M30.6,77.5c0,0.8,0,1.6,0,2.4c0,0.2,0.1,0.5,0.2,0.5c0.2,0,0.5,0,0.7-0.2c0.2-0.2,0.2-0.5,0.3-0.7
			c0-0.8,0-1.6,0-2.4c0-0.6,0-1.2,0-1.8c0-0.4-0.2-0.7-0.7-0.7c-0.5,0-0.5,0.3-0.5,0.7C30.6,76.1,30.6,76.8,30.6,77.5z"/>
		<path fill="#333333" d="M19.1,89.2c-0.5,0-0.9,0-1.5,0c0.5-5.5,1.1-10.9,1.6-16.3c0.4,0,0.8,0,1.2,0c0.5,0,0.7,0.1,0.7,0.6
			c0.1,1.7,0.3,3.3,0.5,5c0.3,3.2,0.6,6.4,0.9,9.5c0,0.4,0,0.7,0.1,1.2c-0.5,0-0.9,0-1.3,0c-0.2,0-0.4-0.3-0.5-0.5
			c-0.1-0.7-0.1-1.3-0.1-2c0-0.4-0.1-0.6-0.6-0.6c-0.4,0-0.8,0-0.9,0.6C19.2,87.6,19.1,88.4,19.1,89.2z M20.5,84.4
			c-0.1-2-0.2-3.9-0.3-5.9c-0.1,0-0.1,0-0.2,0c-0.2,1.9-0.3,3.9-0.5,5.9C19.9,84.4,20.1,84.4,20.5,84.4z"/>
		<path fill="#333333" d="M12.5,72.9c1.2,0,2.3,0,3.5,0c0.1,0,0.3,0.1,0.3,0.1c0,0.5,0.1,0.9,0,1.4c0,0.1-0.5,0.2-0.8,0.2
			c-1.5,0-1.4-0.2-1.4,1.4c0,1.1,0,2.1,0,3.2c0,0.6,0.2,0.9,0.8,0.8c0.2,0,0.7,0.1,0.7,0.2c0.1,0.5,0.1,0.9,0,1.4
			c0,0.1-0.4,0.1-0.7,0.1c-0.6,0-0.8,0.1-0.8,0.7c0,1.5,0,3,0,4.4c0,0.6,0.2,0.8,0.7,0.7c0.1,0,0.3,0,0.4,0c1,0,1.3,0.3,1,1.3
			c0,0.2-0.3,0.3-0.5,0.3c-0.9,0-1.7,0-2.6,0c-0.6,0-0.8-0.1-0.8-0.7c0-3.5,0-6.9,0-10.4c0-1.5,0-3,0-4.4
			C12.5,73.5,12.5,73.2,12.5,72.9z"/>
		<path fill="#333333" d="M39,72.9c0,0.2,0.1,0.3,0.1,0.4c0.1,1.4,0.1,1.4-1.3,1.4c-0.7,0-1,0.1-1,0.9c0.1,1.2,0.1,2.4,0,3.6
			c0,0.7,0.2,1,0.9,0.9c0.2,0,0.4,0,0.6,0c0,0.5,0,1.1,0,1.7c-0.5,0-0.9,0-1.5,0c0,0.5,0,0.9,0,1.4c0,1.3,0,2.6,0,3.8
			c0,0.5,0.1,0.8,0.7,0.7c0.1,0,0.1,0,0.2,0c1.5,0,1.5,0,1.3,1.6c-1.2,0-2.5,0-3.8,0c0-0.3,0-0.5,0-0.8c0-4.9,0-9.8,0-14.6
			c0-0.8,0.2-1,1-0.9C37.1,72.9,38.1,72.9,39,72.9z"/>
		<path fill="#333333" d="M27.6,72.9c0,0.5,0,0.9,0,1.2c0,0.4-0.2,0.6-0.6,0.5c-0.7-0.1-0.9,0.3-0.9,0.9c0,4.3,0,8.6,0,12.9
			c0,0.7-0.2,0.8-0.8,0.8c-0.6,0-0.9-0.1-0.9-0.8c0-4.3,0-8.5,0-12.8c0-0.7-0.1-1.2-0.9-1C23,74.8,22.9,74.4,23,74
			c0.1-0.4-0.4-1.1,0.4-1.1C24.8,72.9,26.1,72.9,27.6,72.9z"/>
	</g>
	<g>
		<path fill="#333333" d="M29.4,33.1c0.1-0.3,0.1-0.5,0.2-0.7c0.1-0.2,0.2-0.5,0.4-0.6c1.6-1.6,1.5-3.7,1.5-5.7c0-0.7-0.3-0.9-1-0.9
			c-3.7,0-7.3,0-11,0c-0.1,0-0.3,0-0.4,0c1.7,0.9,3.3,1.7,5,2.6c2.1,1.1,3.9,2.6,5,4.8C29,32.7,29.2,32.8,29.4,33.1z"/>
		<path fill="#333333" d="M35.4,48.6c0,0.4,0,0.7,0,0.9c0,1-0.6,1.6-1.5,1.6c-1.4,0-2.8-0.1-4.2,0.2c-1,0.2-1.5-0.8-1-1.7
			c0.1-0.2,0.2-0.4,0.3-0.6c-0.1,0-0.2-0.1-0.2-0.1c-1.1,1.9-2.2,3.7-3.4,5.7c0.8-0.2,1-0.5,1.3-1.2c0.2-0.5,0.6-1,0.9-1.4
			c0.4-0.4,0.8-0.4,1.2,0c0.9,0.7,1.9,1.3,2.2,2.5c0,0,0.1,0,0.2,0c0-0.2,0.1-0.5,0.1-0.7c-0.1-2-0.1-2,1.9-1.8c0,0,0.1,0,0.1,0
			c0.9,0.1,1.6-0.3,2-1C36,50.3,36.1,49.5,35.4,48.6z"/>
		<path fill="#333333" d="M30.9,42.6c0.1,0,0.1,0,0.2-0.1c0-0.3-0.1-0.6,0-0.8c0.1-0.4,0.4-0.8,0.6-1.2c0.3-0.4,0.9-0.8,0.9-1.1
			c-0.2-0.7-0.5-1.4-1.2-1.7c0,0.6,0.3,1.3,0,1.6c-0.8,0.8-0.5,1.9-0.8,2.8C30.6,42.2,30.8,42.5,30.9,42.6z"/>
		<path fill="#333333" d="M7,48.1c0.4,0.4,0.5,0.8,0.8,0.9c0.4,0.2,0.9,0.3,1.3,0.3c0.1,0,0.4-0.5,0.4-0.7c-0.1-0.2-0.4-0.4-0.6-0.5
			C8.5,48,8.1,48,7.8,48C7.6,48,7.3,48,7,48.1z"/>
		<path fill="#333333" d="M24.6,53.1c-0.8-0.3-1.6,0.4-1.8,1.5C23.4,54,23.9,53.6,24.6,53.1z"/>
		<path fill="#333333" d="M0,25.1c4.7,0,9.3,0,14.1,0c-0.2,0.3-0.5,0.5-0.6,0.8c-0.1,0.4-0.2,0.8-0.2,1.2c0.1,0.9,0.2,1.8,0.3,2.8
			c0,0.3-0.3,0.6-0.5,0.8c-1.6,1.2-2.4,3.4-1.7,5.3c0.5,1.5,1.4,2.8,2.7,3.8c0.6,0.5,0.9,1.2,1.3,1.8c0.1,0.2,0.1,0.4,0.3,0.6
			c0.5,0.6,0.4,1.1-0.3,1.6c-0.9,0.6-0.8,1.8,0.1,2.5c0.8,0.6,1.7,1.2,2.5,1.8c1.1,0.8,1.2,1.4,0.8,2.7c-0.9,2.7-1,5.4,0.2,8
			c0.2,0.4,0.2,0.8,0.4,1.2c0.1,0.4,0.3,0.7,0.6,1c0.6,0.6,1.3,0.5,1.6-0.3c0.3-0.7,0.7-0.8,1.4-0.6c0.6,0.2,1.4,0.1,2,0.1
			c0.6,0,1.3-0.1,1.9,0c0.6,0.1,1.2,0,1.7-0.6c-0.2-0.3-0.5-0.5-0.6-0.8c-0.2-0.3-0.4-0.8-0.3-1c0.1-0.2,0.6-0.3,1-0.4
			c0.3-0.1,0.7,0,1,0c0.2-0.1,0.6-0.2,0.6-0.4c0-0.2-0.2-0.5-0.4-0.6c-1.4-0.8-2.7-0.6-3.8,0.6c-0.2,0.2-0.5,0.4-0.8,0.5
			c0.4-0.6,0.7-1.2,1.1-1.8c0.1-0.1,0.3-0.2,0.4-0.2c1.4,0.4,2.7-0.1,4.1-0.4c0.1,0,0.2,0,0.3,0c0,0.7,0,1.4-0.1,2.1
			c-0.1,0.3-0.4,0.6-0.7,0.8c-0.8,0.5-0.8,0.7-0.2,1.3c0.3,0.3,0.7,0.6,1,0.8c0.8,0.7,1.2,1.5,1.2,2.6c0,2-1.1,3.2-2.7,4.1
			c-0.3,0.2-0.8,0.2-1.2,0.2c-1-0.1-1.9-0.4-2.9-0.5c-1.7-0.2-2.6,0.7-2.3,2.4c0,0.2,0.1,0.4,0.2,0.7c-0.8-0.1-1.5,0-2.1-0.2
			c-1.1-0.4-2.2-0.9-3.2-1.4c-1.2-0.6-2.4-1.4-3.7-2c-0.6-0.3-1.1-0.6-0.9-1.5c0.1-0.5-0.3-1.2-0.7-1.6c-0.9-1.2-1.7-2.4-2.2-3.8
			c0-0.1-0.1-0.2-0.1-0.3c0-0.4,0.1-0.8,0.1-1.2c0.4,0.1,0.8,0.2,1.2,0.4c0.3,0.1,0.7,0.2,1,0.4c0.1-0.4,0.4-0.8,0.3-1.1
			c-0.6-2.3-0.1-4.5,0-6.8c0.1-2.2,0-4.5-1.1-6.5c-0.3-0.5-0.8-1-1.2-1.3c-0.4-0.3-0.8-0.1-0.9,0.6c-0.1,0.4-0.2,0.9-0.5,1.3
			c-0.4,0.6-0.6,1.3-0.3,2c0.1,0.1,0,0.3,0,0.7c-0.3-0.2-0.5-0.3-0.7-0.5c-0.4-0.4-0.8-0.6-1.3-0.3c-0.6,0.3-0.8,0-0.9-0.5
			c-0.1-0.5-0.1-1.1-0.2-1.6c-0.2-0.8-0.6-0.9-1.2-0.3c-0.2,0.2-0.4,0.5-0.6,0.7c-0.5-0.7-0.3-1.9,0.3-2.5C5,41.6,6,40.8,7.4,40.9
			c0.2,0,0.4-0.2,0.7-0.3c-0.2-0.2-0.3-0.4-0.5-0.5c-0.2-0.1-0.5-0.1-0.7-0.1c-1.9,0.1-4.1,2.4-4,4.3c0,0.7,0.2,1.3,0.4,1.9
			c0.6,2,1.2,4.1,2.7,5.7c0.3,0.3,0.6,0.7,1,1c0.8,0.6,1.9,0.4,2.6-0.5c0.2-0.2,0.5-0.3,0.8-0.4c0,0.3,0.1,0.6,0,0.9
			c-0.5,1.4-1.9,2.2-3.3,1.4c-0.7-0.4-1-0.2-1.2,0.6c-0.4,1.5-0.9,3-1.3,4.5c-0.2,0.7-0.6,1-1.3,0.9c-0.3,0-0.6,0.1-0.9,0.2
			c0.2,0.3,0.3,0.7,0.5,0.9c2.4,1.7,4.9,3.3,7.3,5c1.4,0.9,2.7,2,4,3c0.2,0.1,0.3,0.3,0.5,0.5c-0.3,0-0.5,0.1-0.7,0.1
			c-4.4,0-8.7,0-13.1,0c-0.3,0-0.5,0-0.8-0.1C0,54.8,0,40,0,25.1z"/>
		<path fill="#333333" d="M29.4,33.1c-0.2-0.3-0.4-0.4-0.4-0.6c-1-2.2-2.9-3.6-5-4.8c-1.6-0.9-3.3-1.7-5-2.6c0.1,0,0.2,0,0.4,0
			c3.7,0,7.3,0,11,0c0.7,0,1,0.2,1,0.9c0,2,0.2,4.1-1.5,5.7c-0.2,0.2-0.3,0.4-0.4,0.6C29.5,32.6,29.5,32.8,29.4,33.1z"/>
		<path fill="#333333" d="M27.3,44c0,0,0.2,0.2,0.4,0.3c-0.3,0.8-0.6,1.5-0.9,2.3c-0.1,0-0.2-0.1-0.3-0.1c0.1-0.2,0.1-0.4,0.2-0.7
			c-0.6-0.4-2.1-0.5-1.1-1.9c-1.1-0.7-1.8,0.2-2.8,0.8c0-0.5-0.1-0.9,0-1.2c0.2-0.4,0.4-0.8,0.7-1.2c0.8-1,1.7-2,2.6-3
			c0.6-0.7,1.2-1.1,2.2-0.7c0.3,0.1,0.7,0.2,1,0.3c1.1,0.4,1.4,1.6,0.6,2.5c-0.5,0.6-1,1.2-1.6,1.8C28.1,43.5,27.7,43.7,27.3,44z
			 M26.6,42.5c-0.7-0.4-1.2-0.2-1.6,0.2c-0.1,0.1-0.1,0.2-0.1,0.3c0,0.1,0.2,0.2,0.3,0.1C25.7,42.9,26.1,42.7,26.6,42.5z"/>
		<path fill="#333333" d="M35.4,48.6c0.6,1,0.5,1.8,0.1,2.5c-0.5,0.7-1.2,1-2,1c0,0-0.1,0-0.1,0c-2-0.3-2.1-0.2-1.9,1.8
			c0,0.2-0.1,0.5-0.1,0.7c-0.1,0-0.2,0-0.2,0c-0.3-1.2-1.4-1.8-2.2-2.5c-0.4-0.4-0.9-0.4-1.2,0c-0.4,0.4-0.7,0.9-0.9,1.4
			c-0.3,0.7-0.5,1-1.3,1.2c1.2-1.9,2.3-3.8,3.4-5.7c0.1,0,0.2,0.1,0.2,0.1c-0.1,0.2-0.2,0.4-0.3,0.6c-0.5,0.9,0.1,1.9,1,1.7
			c1.4-0.3,2.8-0.2,4.2-0.2c1,0,1.5-0.7,1.5-1.6C35.4,49.2,35.4,49,35.4,48.6z"/>
		<path fill="#333333" d="M30.9,42.6c-0.1-0.2-0.3-0.4-0.2-0.5c0.3-0.9,0-1.9,0.8-2.8c0.3-0.3,0-1,0-1.6c0.7,0.3,1,1,1.2,1.7
			c0.1,0.3-0.6,0.7-0.9,1.1c-0.2,0.4-0.5,0.7-0.6,1.2c-0.1,0.3,0,0.6,0,0.8C31,42.6,31,42.6,30.9,42.6z"/>
		<path fill="#333333" d="M7,48.1C7.3,48,7.6,48,7.8,48c0.3,0,0.7,0,1,0.1c0.3,0.1,0.6,0.3,0.6,0.5c0,0.2-0.2,0.7-0.4,0.7
			c-0.4,0-0.9-0.1-1.3-0.3C7.5,48.8,7.3,48.5,7,48.1z"/>
		<path fill="#333333" d="M24.6,53.1c-0.6,0.5-1.2,1-1.8,1.5C22.9,53.5,23.7,52.8,24.6,53.1z"/>
	</g>
	<g>
		<path fill="#333333" d="M138.9,21.7c0,0-0.1,0-0.1,0c-0.4-2.9-0.8-5.7-1.2-8.6c-0.6-4-1.2-8-1.8-12.1c-0.1-0.5-0.3-0.6-0.7-0.6
			c-1.7,0-3.5,0-5.2,0c-0.2,0-0.3,0-0.5,0.1c0,10.3,0,20.6,0,30.9c1.3,0,2.6,0,4,0c0-7.3,0-14.6,0-21.9c0.1,0,0.1,0,0.2,0
			c0,0.3,0.1,0.5,0.1,0.8c0.1,0.9,0.1,1.9,0.3,2.8c0.9,5.9,1.8,11.8,2.6,17.8c0.1,0.5,0.3,0.6,0.7,0.6c0.8,0,1.6,0,2.4,0
			c0.5,0,0.6-0.1,0.7-0.6c0.4-2.4,0.8-4.8,1.1-7.2c0.6-4.4,1.3-8.8,1.9-13.2c0-0.2,0.1-0.4,0.1-0.7c0.1,0,0.1,0,0.2,0
			c0,7.2,0,14.4,0,21.5c1.5,0,2.9,0,4.3,0c0-10.4,0-20.6,0-31c-1.9,0-3.8,0-5.6,0c-0.2,0-0.5,0.4-0.5,0.6
			c-0.9,6.5-1.9,12.9-2.8,19.4C139.1,20.9,139,21.3,138.9,21.7z"/>
		<path fill="#333333" d="M89.8,0.5c0,10.4,0,20.7,0,31c1.3,0,2.6,0,3.9,0c0-7.4,0-14.7,0-22c0.3,1.4,0.4,2.8,0.6,4.2
			c0.5,3.7,1.1,7.3,1.6,11c0.3,2.1,0.6,4.2,1,6.4c0,0.2,0.3,0.6,0.5,0.6c1.1,0.1,2.1,0,3.2,0c1.2-7.5,2.3-15,3.4-22.4c0,0,0,0,0.1,0
			c0,7.5,0,14.9,0,22.4c1.4,0,2.8,0,4.2,0c0-10.3,0-20.7,0-31c-1.9,0-3.8,0-5.6,0c-0.5,0-0.5,0.3-0.5,0.6
			c-0.8,5.9-1.7,11.7-2.5,17.6c-0.1,1-0.3,2.1-0.4,3.1c-0.2-0.5-0.3-0.9-0.3-1.4c-0.6-4-1.1-7.9-1.7-11.8c-0.4-2.5-0.7-5-1.1-7.4
			c0-0.2-0.3-0.6-0.5-0.6C93.7,0.5,91.7,0.5,89.8,0.5z"/>
		<path fill="#333333" d="M218.9,12.2c0.1,0,0.1,0,0.2,0c0.3,1.1,0.5,2.3,0.8,3.4c1.7,5.2,3.3,10.4,5,15.5c0.1,0.2,0.4,0.4,0.6,0.4
			c0.8,0.1,1.5,0,2.3,0c0.7,0.1,0.9-0.2,0.9-0.9c0-9.8,0-19.5,0-29.3c0-0.1,0-0.3,0-0.4c-0.1-0.2-0.2-0.4-0.4-0.4
			c-1.2,0-2.4,0-3.7,0c0,6.5,0,12.9,0,19.4c-0.1-0.2-0.2-0.2-0.2-0.2c-1.6-6.2-3.2-12.4-4.8-18.6c-0.1-0.5-0.3-0.6-0.8-0.6
			c-1,0-2,0-3,0c-1,0-1,0-1,0.9c0,9.7,0,19.4,0,29.1c0,0.2,0,0.4,0,0.6c0,0.1,0.2,0.4,0.3,0.4c1.2,0,2.5,0,3.8,0
			C218.9,25,218.9,18.6,218.9,12.2z"/>
		<path fill="#333333" d="M171.4,0.5c0,10.3,0,20.7,0,30.9c3.6,0,7.1,0,10.6,0c0-1.1,0-2.1,0-3.2c-1.8,0-3.6,0-5.3,0
			c-0.6,0-0.7-0.2-0.7-0.7c0-3.2,0-6.4,0-9.6c0-0.6,0.1-0.8,0.7-0.8c1,0,2,0,3,0c0.2,0,0.5-0.2,0.5-0.4c0-0.9,0-1.8,0-2.8
			c-1.2,0-2.3,0-3.5,0c-0.6,0-0.8-0.2-0.8-0.8c0-2.8,0-5.6,0-8.4c0-1.1,0-1.1,1.1-1.1c1.6,0,3.2,0,4.9,0c0-1.1,0-2.2,0-3.2
			C178.4,0.5,174.9,0.5,171.4,0.5z"/>
		<path fill="#333333" d="M118.6,14c0-0.3,0-0.6,0-0.8c0-2.9,0-5.8,0-8.6c0-0.7,0.2-0.8,0.8-0.8c1.6,0,3.1,0,4.7,0
			c0.3,0,0.7,0.1,0.7-0.4c0-0.9,0-1.8,0-2.8c-3.6,0-7.1,0-10.7,0c0,10.3,0,20.6,0,30.9c3.6,0,7.1,0,10.7,0c0-0.9,0-1.7,0-2.5
			c0-0.6-0.2-0.7-0.7-0.7c-1.6,0-3.2,0-4.7,0c-0.6,0-0.7-0.2-0.7-0.8c0-3.2,0-6.4,0-9.5c0-0.7,0.2-0.8,0.9-0.8c1,0,1.9,0,2.9,0
			c0.4,0,0.6-0.1,0.6-0.6c0-0.6,0-1.2,0-1.8c0.1-0.6-0.2-0.8-0.8-0.8C120.9,14,119.8,14,118.6,14z"/>
		<path fill="#333333" d="M85,31.5c0-0.9,0-1.6,0-2.4c0-0.6-0.1-0.8-0.8-0.8c-1.6,0-3.2,0-4.7,0c-0.5,0-0.6-0.1-0.6-0.6
			c0-3.3,0-6.5,0-9.8c0-0.6,0.2-0.7,0.7-0.7c1,0,2,0,3,0c0.2,0,0.5-0.2,0.6-0.4c0.1-0.9,0-1.8,0-2.8c-1.2,0-2.4,0-3.5,0
			c-0.6,0-0.8-0.2-0.8-0.8c0-2.9,0-5.8,0-8.7c0-0.6,0.2-0.8,0.8-0.8c1.6,0,3.1,0,4.7,0c0.2,0,0.6-0.2,0.7-0.3c0.1-0.9,0-1.9,0-2.8
			c-3.6,0-7.1,0-10.7,0c0,10.4,0,20.7,0,31C77.9,31.5,81.4,31.5,85,31.5z"/>
		<path fill="#333333" d="M209.3,31.5c0-10.4,0-20.6,0-31c-1.5,0-3,0-4.6,0c0,10.3,0,20.6,0,31C206.3,31.5,207.7,31.5,209.3,31.5z"
			/>
		<path fill="#333333" d="M241.1,0c0.5,0.2,1.1,0.3,1.6,0.5c2.3,0.8,3.7,2.6,3.7,5.1c0,1.6,0,3.3,0,4.9c0,0.3,0,0.5,0,0.9
			c-1.2,0-2.4,0-3.6,0c-0.5,0-0.4-0.4-0.4-0.7c0-1.7,0-3.5,0-5.2c0-1.2-0.6-1.8-2-1.8c-1.4,0-2,0.6-2,1.8c0,7.2,0,14.4,0,21.6
			c0,0.8,0.2,1.4,0.9,1.7c0.8,0.4,2,0.2,2.5-0.3c0.2-0.3,0.4-0.6,0.4-1c0-2.6,0-5.1,0-7.7c0-0.1,0-0.1-0.1-0.3c-0.5,0-1-0.1-1.6-0.1
			c0-0.9,0-1.7,0-2.5c0-0.1,0.3-0.4,0.5-0.4c1.8,0,3.5,0,5.3,0c0.2,0,0.5,0.3,0.5,0.4c0,4.8,0,9.6,0,14.4c0,0.1,0,0.1-0.1,0.3
			c-1.1-0.1-2.5,0.6-3.1-1.3c-0.9,1-2,1.6-3.2,1.6c-1.2,0-2.4,0-3.5-0.4c-2-0.6-3.3-2.5-3.3-4.7c0-7.1,0-14.2,0-21.4
			c0-2.2,1.6-4.1,4-4.9c0.6-0.2,1.2-0.3,1.8-0.5C240,0,240.6,0,241.1,0z"/>
		<path fill="#333333" d="M138.9,21.7c0.1-0.4,0.1-0.8,0.2-1.3c0.9-6.5,1.8-12.9,2.8-19.4c0-0.2,0.3-0.6,0.5-0.6c1.8,0,3.7,0,5.6,0
			c0,10.3,0,20.6,0,31c-1.4,0-2.8,0-4.3,0c0-7.2,0-14.4,0-21.5c-0.1,0-0.1,0-0.2,0c0,0.2-0.1,0.4-0.1,0.7c-0.6,4.4-1.3,8.8-1.9,13.2
			c-0.4,2.4-0.8,4.8-1.1,7.2c-0.1,0.5-0.3,0.6-0.7,0.6c-0.8,0-1.6,0-2.4,0c-0.5,0-0.7-0.1-0.7-0.6c-0.9-5.9-1.8-11.8-2.6-17.8
			c-0.1-0.9-0.2-1.9-0.3-2.8c0-0.3-0.1-0.5-0.1-0.8c-0.1,0-0.1,0-0.2,0c0,7.3,0,14.6,0,21.9c-1.4,0-2.7,0-4,0c0-10.3,0-20.6,0-30.9
			c0.2,0,0.3-0.1,0.5-0.1c1.7,0,3.5,0,5.2,0c0.5,0,0.7,0.1,0.7,0.6c0.6,4,1.2,8,1.8,12.1c0.4,2.9,0.8,5.7,1.2,8.6
			C138.9,21.7,138.9,21.7,138.9,21.7z"/>
		<path fill="#333333" d="M89.8,0.5c2,0,3.9,0,5.9,0c0.2,0,0.4,0.4,0.5,0.6c0.4,2.5,0.8,5,1.1,7.4c0.6,3.9,1.1,7.9,1.7,11.8
			c0.1,0.5,0.1,0.9,0.3,1.4c0.1-1,0.3-2.1,0.4-3.1c0.8-5.9,1.7-11.7,2.5-17.6c0-0.3,0-0.6,0.5-0.6c1.8,0,3.7,0,5.6,0
			c0,10.4,0,20.7,0,31c-1.4,0-2.8,0-4.2,0c0-7.5,0-14.9,0-22.4c0,0,0,0-0.1,0c-1.1,7.5-2.3,14.9-3.4,22.4c-1.1,0-2.2,0-3.2,0
			c-0.2,0-0.4-0.4-0.5-0.6c-0.3-2.1-0.6-4.2-1-6.4c-0.5-3.7-1.1-7.3-1.6-11c-0.2-1.4-0.3-2.8-0.6-4.2c0,7.3,0,14.7,0,22
			c-1.4,0-2.6,0-3.9,0C89.8,21.2,89.8,10.9,89.8,0.5z"/>
		<path fill="#333333" d="M218.9,12.2c0,6.4,0,12.8,0,19.3c-1.3,0-2.6,0-3.8,0c-0.1,0-0.2-0.2-0.3-0.4c0-0.2,0-0.4,0-0.6
			c0-9.7,0-19.4,0-29.1c0-0.9,0-0.9,1-0.9c1,0,2,0,3,0c0.5,0,0.7,0.1,0.8,0.6c1.6,6.2,3.2,12.4,4.8,18.6c0,0,0.1,0.1,0.2,0.2
			c0-6.5,0-12.9,0-19.4c1.3,0,2.5,0,3.7,0c0.1,0,0.3,0.2,0.4,0.4c0.1,0.1,0,0.3,0,0.4c0,9.8,0,19.5,0,29.3c0,0.7-0.1,1-0.9,0.9
			c-0.8-0.1-1.5,0-2.3,0c-0.2,0-0.6-0.2-0.6-0.4c-1.7-5.2-3.4-10.3-5-15.5c-0.4-1.1-0.6-2.2-0.8-3.4C219,12.2,218.9,12.2,218.9,12.2
			z"/>
		<path fill="#333333" d="M153.7,0.5c1.3,0,2.5,0,3.8,0c1.6,0,3.3,0,4.9,0.2c2.4,0.3,3.8,2.1,3.9,4.6c0,2.1-0.1,4.2,0,6.4
			c0.1,1.8-0.6,3.2-2.4,4c0.3,0.2,0.5,0.4,0.8,0.5c1.1,0.7,1.6,1.7,1.6,3c0,2.5,0,5,0,7.5c0,2.5-1.4,4.3-4,4.6
			c-1.4,0.2-2.9,0.2-4.3,0.2c-1.4,0-2.8,0-4.2,0C153.7,21.2,153.7,10.9,153.7,0.5z M161.7,22.8c0-1,0-2,0-3c0-2.4-0.3-2.6-2.7-2.6
			c-0.6,0-0.7,0.2-0.7,0.7c0,2.8,0,5.6,0,8.4c0,1.9,0,1.9,1.9,1.8c1,0,1.5-0.5,1.5-1.5C161.7,25.4,161.7,24.1,161.7,22.8z
			 M158.3,3.8c0,1,0,1.8,0,2.7c0,2.4,0,4.7,0,7.1c0,0.2,0.2,0.6,0.3,0.6c0.6,0.1,1.2,0.1,1.8,0c0.7-0.1,1.2-0.6,1.2-1.3
			c0-2.6,0-5.2,0-7.8c0-0.7-0.4-1.1-1.1-1.2C159.9,3.7,159.1,3.8,158.3,3.8z"/>
		<path fill="#333333" d="M196.9,16.5c0.4,0.3,0.8,0.5,1.2,0.8c0.9,0.7,1.3,1.6,1.3,2.8c0,2.3,0,4.6,0,7c0,1.2,0,2.5,0.7,3.6
			c0.1,0.2,0.1,0.6,0.1,0.9c-1.2,0-2.4,0.1-3.5,0c-1.1-0.1-1.4-1.1-1.6-2c-0.2-0.8-0.2-1.6-0.2-2.3c0-2.5,0-4.9,0-7.4
			c0-1.1-0.6-1.7-1.7-1.7c-1.8,0-1.8,0-1.8,1.8c0,3.6,0,7.2,0,10.9c0,0.3,0,0.5,0,0.8c-1.6,0-3,0-4.6,0c0-10.3,0-20.6,0-31
			c0.7,0,1.4,0,2.2,0c1.6,0,3.2,0,4.8,0c0.7,0,1.4,0.1,2,0.3c2.3,0.6,3.5,2.2,3.5,4.6c0,2.4,0,4.9,0,7.3c0,1.7-0.6,2.9-2,3.6
			C197.2,16.3,197.1,16.4,196.9,16.5z M191.4,3.8c0,0.3,0,0.6,0,0.9c0,3,0,5.9,0,8.9c0,1.5-0.2,1.3,1.4,1.3c1.5,0,2-0.5,2-2
			c0-2.4,0-4.8,0-7.2c0-0.3,0-0.5-0.1-0.8c-0.1-0.5-0.4-0.9-1-1C193,3.8,192.2,3.8,191.4,3.8z"/>
		<path fill="#333333" d="M56.4,0.5c1.5,0,2.8,0,4.2,0c1.5,0,3.1,0,4.6,0.2c2.4,0.4,3.7,2.1,3.7,4.6c0,2.5,0,5,0,7.5
			c0,1.6-0.6,2.6-1.9,3.4c-0.1,0.1-0.3,0.2-0.5,0.3c0.2,0.1,0.3,0.2,0.4,0.3c1.5,0.8,2.2,2,2.1,3.7c0,2.5-0.1,5,0,7.5
			c0,0.8,0.3,1.7,0.5,2.5c0.3,0.9,0.2,1.2-0.8,1.2c-0.4,0-0.9,0-1.3,0c-1.8,0-2.6-0.7-2.9-2.4c-0.1-0.5-0.1-0.9-0.1-1.4
			c0-2.6,0-5.1,0-7.7c0-1.6-0.5-2.1-2.1-2.1c-1.6,0-1.5-0.2-1.5,1.4c0,3.8,0,7.5,0,11.3c0,0.6-0.1,0.8-0.7,0.8c-1.1,0-2.2,0-3.3,0
			c-0.4,0-0.6-0.1-0.6-0.6c0-0.9,0-1.8,0-2.7c0-8.9,0-17.8,0-26.8C56.4,1.2,56.4,0.9,56.4,0.5z M61,9.2c0,1.6,0,3.3,0,4.9
			c0,0.6,0.2,0.8,0.8,0.7c0.2,0,0.3,0,0.5,0c1.6,0,2.1-0.5,2.1-2.1c0-2.1,0-4.2,0-6.4c0-2.5-0.2-2.7-2.7-2.6c-0.5,0-0.7,0.2-0.7,0.7
			C61,6,61,7.6,61,9.2z"/>
		<path fill="#333333" d="M171.4,0.5c3.5,0,7,0,10.6,0c0,1,0,2.1,0,3.2c-1.7,0-3.3,0-4.9,0c-1.1,0-1.1,0-1.1,1.1c0,2.8,0,5.6,0,8.4
			c0,0.6,0.2,0.8,0.8,0.8c1.1,0,2.3,0,3.5,0c0,1,0,1.9,0,2.8c0,0.1-0.3,0.4-0.5,0.4c-1,0-2,0.1-3,0c-0.6,0-0.8,0.2-0.7,0.8
			c0,3.2,0,6.4,0,9.6c0,0.5,0.2,0.7,0.7,0.7c1.7,0,3.5,0,5.3,0c0,1.1,0,2.1,0,3.2c-3.5,0-7,0-10.6,0
			C171.4,21.2,171.4,10.9,171.4,0.5z"/>
		<path fill="#333333" d="M118.6,14c1.2,0,2.4,0,3.5,0c0.6,0,0.9,0.2,0.8,0.8c-0.1,0.6,0,1.2,0,1.8c0,0.5-0.2,0.6-0.6,0.6
			c-1,0-1.9,0-2.9,0c-0.6,0-0.9,0.1-0.9,0.8c0,3.2,0,6.4,0,9.5c0,0.6,0.1,0.8,0.7,0.8c1.6,0,3.2,0,4.7,0c0.6,0,0.7,0.2,0.7,0.7
			c0,0.8,0,1.6,0,2.5c-3.6,0-7.1,0-10.7,0c0-10.3,0-20.6,0-30.9c3.6,0,7.1,0,10.7,0c0,0.9,0,1.9,0,2.8c0,0.5-0.4,0.4-0.7,0.4
			c-1.6,0-3.1,0-4.7,0c-0.6,0-0.9,0.1-0.8,0.8c0,2.9,0,5.8,0,8.6C118.5,13.4,118.6,13.6,118.6,14z"/>
		<path fill="#333333" d="M85,31.5c-3.6,0-7.1,0-10.7,0c0-10.3,0-20.6,0-31c3.5,0,7,0,10.7,0c0,0.9,0,1.9,0,2.8
			c0,0.1-0.4,0.3-0.7,0.3c-1.6,0-3.1,0-4.7,0c-0.6,0-0.8,0.2-0.8,0.8c0,2.9,0,5.8,0,8.7c0,0.6,0.2,0.8,0.8,0.8c1.2,0,2.3,0,3.5,0
			c0,1,0,1.9,0,2.8c0,0.1-0.4,0.4-0.6,0.4c-1,0-2,0-3,0c-0.5,0-0.7,0.1-0.7,0.7c0,3.3,0,6.5,0,9.8c0,0.5,0.2,0.6,0.6,0.6
			c1.6,0,3.2,0,4.7,0c0.6,0,0.8,0.2,0.8,0.8C85,29.8,85,30.6,85,31.5z"/>
		<path fill="#333333" d="M209.3,31.5c-1.6,0-3,0-4.6,0c0-10.3,0-20.6,0-31c1.5,0,3,0,4.6,0C209.3,10.8,209.3,21.1,209.3,31.5z"/>
	</g>
	<g>
		<path fill="#333333" d="M39.1,5.1C39.1,5.1,39.1,5.1,39.1,5.1c0-0.8,0-1.6-0.1-2.4c-0.3-1.6-1.2-2.5-2.5-2.5
			c-1.7-0.1-2.8,0.7-3.2,2.3c-0.4,1.5-0.4,3.1,0.1,4.5c0.8,2.3,1.7,4.6,2.6,6.9c0.7,1.8,1.2,3.5,1.1,5.5c0,0.7-0.5,1.2-1.1,1.2
			c-0.7,0-1-0.5-1-1.1c0-0.7,0-1.3,0-2c0-1.6,0.4-1.4-1.5-1.4c0,0-0.1,0-0.1,0c-0.2,0.2-0.5,0.3-0.5,0.5c0,1.1,0,2.3,0.1,3.4
			c0.2,1.7,1.3,2.7,2.8,2.8c1.7,0.1,2.8-0.7,3.3-2.4c0.5-1.8,0.2-3.6-0.4-5.4c-0.8-2.2-1.8-4.4-2.6-6.7c-0.5-1.3-0.6-2.8-0.9-4.2
			c0-0.2,0-0.4,0-0.7c0.1-0.5,0.5-0.9,1-0.9C36.7,2.6,37,3,37,3.5c0,1,0,2.1,0,3.1c0,0.4,0.2,0.6,0.6,0.6c0.2,0,0.4,0,0.7,0
			c0.6,0.1,0.8-0.1,0.8-0.7C39,6,39.1,5.6,39.1,5.1z"/>
		<path fill="#333333" d="M29.7,6c1.1-0.1,1.7-0.6,1.8-1.7c0.1-1.1,0.1-2.3,0.1-3.4c0-0.2-0.2-0.4-0.4-0.4c-0.2-0.1-0.5,0-0.7,0
			c-0.5,0-0.7,0.1-0.7,0.6c0,0.7,0,1.4,0,2.1c0,0.4,0,0.6,0.5,0.6c0.1,0,0.3,0.3,0.3,0.4C30.5,4.7,30.2,5,30,5.3
			C29.9,5.5,29.9,5.7,29.7,6z"/>
		<path fill="#333333" d="M0,0.6c1.7,0,3.4,0,5.1,0c0,0.7,0,1.4,0,2.2c-0.7,0-1.4,0-2,0c-0.5,0-0.7,0.1-0.7,0.7c0,2,0,4,0,6
			c0,0.5,0.2,0.7,0.7,0.7c1.6,0,1.5,0,1.5,1.6c0,0.5-0.1,0.7-0.7,0.7c-1.5,0-1.5,0-1.5,1.6c0,2.6,0,5.2,0,7.8c0,0.6-0.2,0.8-0.8,0.8
			c-0.5,0-1.1,0-1.6,0C0,15.2,0,7.9,0,0.6z"/>
		<path fill="#333333" d="M6.4,11.5c0-2.4,0-4.9,0-7.3c0-0.6,0.1-1.2,0.3-1.7C7.3,0.9,8.5,0.1,10,0.3c1.3,0.2,2.5,1.4,2.7,2.9
			c0.1,0.5,0.1,0.9,0.1,1.4c0,4.7,0,9.3,0,14c0,0.7-0.1,1.4-0.3,2.1c-0.5,1.5-1.8,2.3-3.2,2.1c-1.3-0.1-2.5-1.3-2.7-2.7
			c-0.1-0.4-0.1-0.8-0.1-1.2C6.4,16.4,6.4,13.9,6.4,11.5z M10.5,11.5c0-2.4,0-4.9,0-7.3c0-0.2,0-0.4,0-0.6C10.4,3,10.1,2.7,9.6,2.7
			C9.1,2.7,8.8,3,8.7,3.5c0,0.2,0,0.5,0,0.7c0,4.8,0,9.7,0,14.5c0,0.3-0.1,0.6,0.1,0.9c0.2,0.3,0.5,0.7,0.8,0.7
			c0.3,0,0.7-0.3,0.9-0.6c0.1-0.2,0.1-0.5,0.1-0.8C10.5,16.4,10.5,14,10.5,11.5z"/>
		<path fill="#333333" d="M22.2,11.5c0-3.4,0-6.8,0-10.1c0-0.6,0.1-0.9,0.9-0.9c0.8,0.1,1.6,0,2.4,0c1.5,0,2.5,0.8,2.8,2.3
			c0.1,0.6,0.2,1.1,0.2,1.7c0,4.7,0,9.4,0,14.1c0,0.7-0.2,1.5-0.4,2.2c-0.3,1-1.1,1.5-2.1,1.6c-1,0-2,0-3,0.1
			c-0.6,0-0.7-0.2-0.7-0.7C22.2,18.4,22.2,14.9,22.2,11.5z M24.5,3c0,0.2,0,0.4,0,0.5c0,5.3,0,10.6,0,15.9c0,0.1,0,0.2,0,0.3
			c0.1,0.2,0.3,0.4,0.4,0.4c0.9,0.1,1.3-0.3,1.3-1.4c0-4.8,0-9.7,0-14.5C26.2,3,25.8,2.7,24.5,3z"/>
		<path fill="#333333" d="M14.3,0.5c1.3,0,2.5-0.1,3.7,0c1.2,0.1,2.1,0.9,2.3,2.2c0.2,1.2,0.1,2.5,0.2,3.8c0,0.8,0,1.5,0,2.3
			c0,1.2-0.1,2.3-1.2,3.1c1.2,0.9,1.3,2.1,1.2,3.3c0,1.4,0,2.7,0,4.1c0,0.8,0.1,1.7,0.3,2.5c0.1,0.6,0.1,0.9-0.7,0.9
			c-1.2,0-1.4-0.2-1.7-1.3c-0.1-0.4-0.1-0.8-0.1-1.2c0-1.9,0-3.9,0-5.8c0-0.6-0.1-1.2-0.9-1.4c-0.5-0.1-0.9,0-0.9,0.7
			c0,2.6,0,5.2,0,7.8c0,0.2,0,0.3,0,0.5c0,0.1,0,0.3,0,0.3c-0.6,0.1-1.3,0.2-1.9,0.2c-0.1,0-0.3-0.4-0.3-0.6c0-1.4,0-2.8,0-4.1
			c0-5.4,0-10.8,0-16.3C14.3,1.2,14.3,0.9,14.3,0.5z M16.6,3c0,2.4,0,4.8,0,7.2c0,0.2,0.2,0.4,0.4,0.4c0.8,0.1,1.2-0.3,1.2-1.3
			c0-1.7,0-3.5,0-5.2C18.2,3,17.9,2.7,16.6,3z"/>
		<path fill="#333333" d="M39.1,5.1c0,0.4,0,0.9,0,1.3c0.1,0.6-0.2,0.8-0.8,0.7c-0.2,0-0.4,0-0.7,0C37.2,7.2,37,7,37,6.6
			c0-1,0-2.1,0-3.1c0-0.5-0.3-0.9-0.8-0.9c-0.6,0-0.9,0.3-1,0.9c0,0.2-0.1,0.4,0,0.7c0.3,1.4,0.4,2.8,0.9,4.2
			c0.8,2.3,1.8,4.4,2.6,6.7c0.6,1.7,0.9,3.5,0.4,5.4c-0.4,1.7-1.6,2.6-3.3,2.4c-1.5-0.1-2.6-1.1-2.8-2.8c-0.1-1.1-0.1-2.3-0.1-3.4
			c0-0.2,0.3-0.3,0.5-0.5c0,0,0,0,0.1,0c1.9,0,1.5-0.1,1.5,1.4c0,0.7,0,1.3,0,2c0,0.6,0.3,1.1,1,1.1c0.6,0,1-0.4,1.1-1.2
			c0.1-1.9-0.4-3.7-1.1-5.5c-0.9-2.3-1.8-4.6-2.6-6.9c-0.5-1.5-0.6-3-0.1-4.5c0.5-1.6,1.6-2.4,3.2-2.3c1.3,0.1,2.3,1,2.5,2.5
			C39.1,3.6,39.1,4.3,39.1,5.1C39.1,5.1,39.1,5.1,39.1,5.1z"/>
		<path fill="#333333" d="M29.7,6c0.1-0.3,0.2-0.5,0.3-0.7c0.2-0.4,0.4-0.7,0.5-1.1c0-0.1-0.2-0.4-0.3-0.4c-0.5,0-0.5-0.3-0.5-0.6
			c0-0.7,0-1.4,0-2.1c0-0.5,0.2-0.7,0.7-0.6c0.2,0,0.5-0.1,0.7,0c0.2,0.1,0.4,0.3,0.4,0.4c0,1.1,0,2.3-0.1,3.4
			C31.4,5.4,30.8,6,29.7,6z"/>
	</g>
</g>
</svg>
