<?xml version="1.0" encoding="utf-8"?>
<!-- Generator: Adobe Illustrator 18.1.1, SVG Export Plug-In . SVG Version: 6.00 Build 0)  -->
<svg version="1.1" id="Layer_1" xmlns="http://www.w3.org/2000/svg" xmlns:xlink="http://www.w3.org/1999/xlink" x="0px" y="0px"
	 viewBox="0 0 284 40" enable-background="new 0 0 284 40" xml:space="preserve">
<g>
	<g>
		<g>
			<path fill="#FFFFFF" d="M275.8,8.3C275.9,8.3,275.9,8.3,275.8,8.3c0.1,0.1,0.2,0.2,0.2,0.3c0.2,0.8,0.4,1.7,0.7,2.5
				c1.2,3.5,2.5,7.1,3.7,10.6c0.1,0.2,0.2,0.3,0.4,0.3c0.7,0,1.3,0,2,0c0.4,0,0.4,0,0.4-0.4c0-6.1,0-12.2,0-18.3c0-0.8,0-1.7,0-2.5
				c0-0.4,0-0.4-0.4-0.4c-0.7,0-1.5,0-2.2,0c-0.1,0-0.2,0-0.4,0c0,4.6,0,9.1,0,13.7c-0.1-0.1-0.1-0.2-0.2-0.3
				c-0.2-0.8-0.4-1.7-0.6-2.5c-1-3.5-2-7-3.1-10.5c-0.1-0.2-0.2-0.3-0.4-0.3c-0.9,0-1.9,0-2.8,0c-0.1,0-0.2,0-0.3,0
				c0,0.2,0,0.3,0,0.5c0,6.9,0,13.8,0,20.7c0,0.1,0,0.1,0,0.2c0,0.2,0.1,0.3,0.3,0.3c0.8,0,1.5,0,2.3,0c0.4,0,0.4,0,0.4-0.4
				c0-4.3,0-8.5,0-12.8C275.8,8.5,275.8,8.4,275.8,8.3z"/>
			<path fill="#FFFFFF" d="M231.7,21.9c0-7.2,0-14.4,0-21.6c-1,0-2,0-3,0c0,4.6,0,9.1,0,13.6c-0.1-0.1-0.1-0.1-0.1-0.2
				c-0.2-0.9-0.4-1.7-0.6-2.6c-1-3.5-2-7.1-3.1-10.6c-0.1-0.2-0.1-0.3-0.4-0.3c-1,0-1.9,0-2.9,0c-0.1,0-0.2,0-0.3,0
				c0,7.2,0,14.4,0,21.6c1,0,2,0,3,0c0-4.6,0-9.1,0-13.7c0.1,0,0.1,0.1,0.1,0.1c0.3,1,0.5,1.9,0.8,2.9c0.8,2.5,1.7,5,2.6,7.5
				c0.3,1,0.7,2,1,2.9c0,0.1,0.2,0.3,0.3,0.3C230,21.9,230.8,21.9,231.7,21.9z"/>
			<path fill="#FFFFFF" d="M241.9,7.9c0.9,0,1.8,0,2.6,0c0.2,0,0.3-0.1,0.3-0.3c0-1.3,0-2.6,0-3.9c0-1.4-0.6-2.5-1.9-3.1
				c-1.7-0.9-3.5-0.8-5.3,0c-1.5,0.7-2.3,1.8-2.2,3.6c0,4.7,0,9.4,0,14.1c0,1.4,0.6,2.4,1.8,3.1c1.6,0.9,3.3,1.1,5,0.5
				c1.8-0.5,2.6-1.8,2.6-3.6c0-1.2,0-2.4,0-3.6c0-0.1,0-0.2,0-0.4c-1,0-1.9,0-2.9,0c0,0.1,0,0.3,0,0.4c0,1.3,0,2.6,0,4
				c0,0.5-0.2,0.9-0.7,1c-0.3,0.1-0.7,0.1-1.1,0.1c-0.9,0-1.3-0.5-1.3-1.4c0-4.2,0-8.3,0-12.5c0-0.8,0-1.6,0-2.3
				c0-0.6,0.2-0.9,0.8-1.1c0.5-0.2,1.1-0.2,1.6,0c0.4,0.2,0.7,0.5,0.7,1c0,0.4,0,0.7,0,1.1C241.9,5.7,241.9,6.8,241.9,7.9z"/>
			<path fill="#FFFFFF" d="M202.8,0.3c0,0.2,0,0.3,0,0.4c0,5.6,0,11.2,0,16.9c0,1.3,0,2.6,0,4c0,0.2,0,0.3,0.3,0.3
				c2.4,0,4.8,0,7.2,0c0.2,0,0.3-0.1,0.3-0.3c0-0.6,0-1.1,0-1.7c0-0.3-0.1-0.3-0.3-0.3c-1.2,0-2.3,0-3.5,0c-0.6,0-0.5,0.1-0.5-0.5
				c0-6.1,0-12.3,0-18.4c0-0.1,0-0.3,0-0.5C205.1,0.3,204,0.3,202.8,0.3z"/>
			<path fill="#FFFFFF" d="M261.9,0.3c0,7.2,0,14.4,0,21.6c0.1,0,0.1,0,0.1,0c2.4,0,4.9,0,7.3,0c0.2,0,0.3-0.1,0.3-0.3
				c0-0.5,0-1.1,0-1.6c0-0.3-0.1-0.3-0.4-0.3c-1.2,0-2.4,0-3.5,0c-0.5,0-0.5,0-0.5-0.5c0-6.1,0-12.3,0-18.4c0-0.1,0-0.2,0-0.3
				c0-0.2-0.1-0.3-0.3-0.3c-0.6,0-1.2,0-1.8,0C262.8,0.3,262.4,0.3,261.9,0.3z"/>
			<path fill="#FFFFFF" d="M213.8,0.3c0,0.2,0,0.3,0,0.4c0,4.7,0,9.4,0,14.1c0,2.2,0,4.5,0,6.7c0,0.3,0.1,0.4,0.4,0.4
				c0.9,0,1.8,0,2.7,0c0.1,0,0.2,0,0.4,0c0-0.2,0-0.3,0-0.5c0-5.9,0-11.8,0-17.6c0-1.1,0-2.1,0-3.2c0-0.2-0.1-0.3-0.3-0.3
				c-0.6,0-1.2,0-1.8,0C214.7,0.3,214.3,0.3,213.8,0.3z"/>
			<path fill="#FFFFFF" d="M275.8,8.3c0,0.1,0,0.2,0,0.4c0,4.3,0,8.5,0,12.8c0,0.4,0,0.4-0.4,0.4c-0.8,0-1.5,0-2.3,0
				c-0.2,0-0.3-0.1-0.3-0.3c0-0.1,0-0.1,0-0.2c0-6.9,0-13.8,0-20.7c0-0.1,0-0.3,0-0.5c0.1,0,0.2,0,0.3,0c0.9,0,1.9,0,2.8,0
				c0.2,0,0.3,0.1,0.4,0.3c1,3.5,2.1,7,3.1,10.5c0.2,0.8,0.4,1.7,0.6,2.5c0,0.1,0.1,0.2,0.2,0.3c0-4.5,0-9.1,0-13.7
				c0.1,0,0.3,0,0.4,0c0.7,0,1.5,0,2.2,0c0.4,0,0.4,0,0.4,0.4c0,0.8,0,1.7,0,2.5c0,6.1,0,12.2,0,18.3c0,0.4,0,0.4-0.4,0.4
				c-0.7,0-1.3,0-2,0c-0.2,0-0.3-0.1-0.4-0.3c-1.2-3.5-2.5-7.1-3.7-10.6c-0.3-0.8-0.5-1.7-0.7-2.5C276,8.5,275.9,8.4,275.8,8.3
				C275.9,8.3,275.9,8.3,275.8,8.3z"/>
			<path fill="#FFFFFF" d="M231.7,21.9c-0.9,0-1.7,0-2.5,0c-0.1,0-0.2-0.2-0.3-0.3c-0.4-1-0.7-2-1-2.9c-0.9-2.5-1.8-5-2.6-7.5
				c-0.3-0.9-0.5-1.9-0.8-2.9c0,0,0-0.1-0.1-0.1c0,4.6,0,9.1,0,13.7c-1,0-2,0-3,0c0-7.2,0-14.4,0-21.6c0.1,0,0.2,0,0.3,0
				c1,0,1.9,0,2.9,0c0.2,0,0.3,0.1,0.4,0.3c1,3.5,2.1,7.1,3.1,10.6c0.2,0.9,0.4,1.7,0.6,2.6c0,0.1,0,0.1,0.1,0.2c0-4.5,0-9.1,0-13.6
				c1,0,2,0,3,0C231.7,7.5,231.7,14.7,231.7,21.9z"/>
			<path fill="#FFFFFF" d="M258,11.1c0,2.4,0,4.7,0,7.1c0,1.6-0.7,2.7-2,3.3c-2,1-4.1,0.9-6-0.2c-1.1-0.7-1.7-1.7-1.7-3
				c0-4.8,0-9.6,0-14.4c0-1.6,0.8-2.6,2.1-3.2c2-0.9,4-0.9,5.9,0.2c1.1,0.7,1.7,1.7,1.7,3C257.9,6.3,258,8.7,258,11.1z M254.5,11.1
				c0-2.5,0-5,0-7.6c0-0.6-0.3-1-0.8-1.1c-0.3-0.1-0.7-0.1-1.1,0c-0.7,0.1-1,0.5-1,1.2c0,5,0,10,0,15c0,0.7,0.3,1,0.9,1.1
				c0.3,0.1,0.7,0.1,1,0c0.7-0.1,0.9-0.5,0.9-1.2C254.5,16.1,254.5,13.6,254.5,11.1z"/>
			<path fill="#FFFFFF" d="M241.9,7.9c0-1.1,0-2.2,0-3.2c0-0.4,0-0.7,0-1.1c0-0.5-0.2-0.8-0.7-1c-0.5-0.2-1.1-0.2-1.6,0
				c-0.5,0.2-0.8,0.5-0.8,1.1c0,0.8,0,1.6,0,2.3c0,4.2,0,8.3,0,12.5c0,0.9,0.4,1.3,1.3,1.4c0.3,0,0.7,0,1.1-0.1
				c0.5-0.1,0.7-0.5,0.7-1c0-1.3,0-2.6,0-4c0-0.1,0-0.2,0-0.4c1,0,1.9,0,2.9,0c0,0.1,0,0.3,0,0.4c0,1.2,0,2.4,0,3.6
				c0,1.8-0.9,3.1-2.6,3.6c-1.7,0.5-3.4,0.4-5-0.5c-1.2-0.7-1.8-1.7-1.8-3.1c0-4.7,0-9.4,0-14.1c0-1.7,0.7-2.9,2.2-3.6
				c1.7-0.8,3.5-0.8,5.3,0c1.2,0.6,1.9,1.7,1.9,3.1c0,1.3,0,2.6,0,3.9c0,0.2-0.1,0.3-0.3,0.3C243.7,7.9,242.8,7.9,241.9,7.9z"/>
			<path fill="#FFFFFF" d="M202.8,0.3c1.2,0,2.3,0,3.4,0c0,0.2,0,0.3,0,0.5c0,6.1,0,12.3,0,18.4c0,0.6,0,0.5,0.5,0.5
				c1.2,0,2.3,0,3.5,0c0.2,0,0.3,0.1,0.3,0.3c0,0.6,0,1.1,0,1.7c0,0.2-0.1,0.3-0.3,0.3c-2.4,0-4.8,0-7.2,0c-0.3,0-0.3-0.1-0.3-0.3
				c0-1.3,0-2.6,0-4c0-5.6,0-11.2,0-16.9C202.8,0.6,202.8,0.5,202.8,0.3z"/>
			<path fill="#FFFFFF" d="M261.9,0.3c0.4,0,0.9,0,1.3,0c0.6,0,1.2,0,1.8,0c0.2,0,0.3,0.1,0.3,0.3c0,0.1,0,0.2,0,0.3
				c0,6.1,0,12.3,0,18.4c0,0.5,0,0.5,0.5,0.5c1.2,0,2.4,0,3.5,0c0.3,0,0.4,0.1,0.4,0.3c0,0.5,0,1.1,0,1.6c0,0.2,0,0.3-0.3,0.3
				c-2.4,0-4.9,0-7.3,0c0,0-0.1,0-0.1,0C261.9,14.7,261.9,7.5,261.9,0.3z"/>
			<path fill="#FFFFFF" d="M213.8,0.3c0.5,0,0.9,0,1.3,0c0.6,0,1.2,0,1.8,0c0.2,0,0.3,0.1,0.3,0.3c0,1.1,0,2.1,0,3.2
				c0,5.9,0,11.8,0,17.6c0,0.1,0,0.3,0,0.5c-0.1,0-0.3,0-0.4,0c-0.9,0-1.8,0-2.7,0c-0.3,0-0.4-0.1-0.4-0.4c0-2.2,0-4.5,0-6.7
				c0-4.7,0-9.4,0-14.1C213.8,0.6,213.8,0.5,213.8,0.3z"/>
		</g>
		<g>
			<path fill="#FFFFFF" d="M114.9,15.4C114.8,15.4,114.8,15.4,114.9,15.4c-0.4-2-0.6-4.1-0.9-6.1c-0.4-2.9-0.9-5.7-1.3-8.6
				c0-0.3-0.2-0.4-0.5-0.4c-1.2,0-2.4,0-3.7,0c-0.1,0-0.2,0-0.4,0c0,7.3,0,14.6,0,22c0.9,0,1.8,0,2.8,0c0-5.2,0-10.4,0-15.5
				c0,0,0.1,0,0.1,0c0,0.2,0.1,0.4,0.1,0.6c0.1,0.7,0.1,1.3,0.2,2c0.6,4.2,1.3,8.4,1.9,12.6c0,0.3,0.2,0.4,0.5,0.4
				c0.6,0,1.1,0,1.7,0c0.3,0,0.5-0.1,0.5-0.4c0.3-1.7,0.6-3.4,0.8-5.1c0.5-3.1,0.9-6.2,1.3-9.3c0-0.2,0-0.3,0.1-0.5c0,0,0.1,0,0.1,0
				c0,5.1,0,10.2,0,15.3c1.1,0,2.1,0,3.1,0c0-7.3,0-14.6,0-22c-1.4,0-2.7,0-4,0c-0.1,0-0.3,0.3-0.4,0.4c-0.7,4.6-1.3,9.2-2,13.8
				C115,14.8,114.9,15.1,114.9,15.4z"/>
			<path fill="#FFFFFF" d="M80,0.3c0,7.4,0,14.7,0,22c0.9,0,1.8,0,2.8,0c0-5.2,0-10.4,0-15.6c0.2,1,0.3,2,0.4,3
				c0.4,2.6,0.8,5.2,1.2,7.8c0.2,1.5,0.4,3,0.7,4.5c0,0.2,0.2,0.4,0.3,0.4c0.7,0,1.5,0,2.3,0c0.8-5.3,1.6-10.6,2.4-15.9c0,0,0,0,0,0
				c0,5.3,0,10.6,0,15.9c1,0,2,0,3,0c0-7.3,0-14.7,0-22c-1.4,0-2.7,0-4,0c-0.3,0-0.3,0.2-0.4,0.5c-0.6,4.2-1.2,8.3-1.8,12.5
				c-0.1,0.7-0.2,1.5-0.3,2.2c-0.2-0.3-0.2-0.6-0.2-1c-0.4-2.8-0.8-5.6-1.2-8.4c-0.3-1.8-0.5-3.5-0.8-5.3c0-0.2-0.2-0.4-0.3-0.4
				C82.7,0.3,81.4,0.3,80,0.3z"/>
			<path fill="#FFFFFF" d="M171.6,8.7c0,0,0.1,0,0.1,0c0.2,0.8,0.3,1.6,0.6,2.4c1.2,3.7,2.4,7.3,3.6,11c0,0.1,0.3,0.3,0.4,0.3
				c0.5,0,1.1,0,1.6,0c0.5,0,0.6-0.2,0.6-0.6c0-6.9,0-13.9,0-20.8c0-0.1,0-0.2,0-0.3c-0.1-0.1-0.2-0.3-0.3-0.3c-0.9,0-1.7,0-2.6,0
				c0,4.6,0,9.1,0,13.8c-0.1-0.1-0.1-0.1-0.1-0.2c-1.1-4.4-2.3-8.8-3.4-13.2c-0.1-0.3-0.2-0.4-0.6-0.4c-0.7,0-1.4,0-2.2,0
				c-0.7,0-0.7,0-0.7,0.7c0,6.9,0,13.8,0,20.7c0,0.1,0,0.3,0,0.4c0,0.1,0.1,0.3,0.2,0.3c0.9,0,1.8,0,2.7,0
				C171.6,17.7,171.6,13.2,171.6,8.7z"/>
			<path fill="#FFFFFF" d="M137.9,0.4c0,7.3,0,14.7,0,22c2.5,0,5,0,7.5,0c0-0.8,0-1.5,0-2.3c-1.3,0-2.5,0-3.8,0
				c-0.4,0-0.5-0.1-0.5-0.5c0-2.3,0-4.5,0-6.8c0-0.4,0.1-0.6,0.5-0.5c0.7,0,1.4,0,2.1,0c0.1,0,0.4-0.2,0.4-0.3c0-0.6,0-1.3,0-2
				c-0.9,0-1.7,0-2.5,0c-0.4,0-0.6-0.1-0.6-0.6c0-2,0-4,0-5.9c0-0.8,0-0.8,0.8-0.8c1.1,0,2.3,0,3.5,0c0-0.8,0-1.5,0-2.3
				C142.9,0.4,140.4,0.4,137.9,0.4z"/>
			<path fill="#FFFFFF" d="M100.4,9.9c0-0.2,0-0.4,0-0.6c0-2,0-4.1,0-6.1c0-0.5,0.1-0.6,0.6-0.6c1.1,0,2.2,0,3.3,0
				c0.2,0,0.5,0.1,0.5-0.3c0-0.6,0-1.3,0-2c-2.6,0-5.1,0-7.6,0c0,7.3,0,14.6,0,22c2.5,0,5,0,7.6,0c0-0.6,0-1.2,0-1.8
				c0-0.4-0.1-0.5-0.5-0.5c-1.1,0-2.2,0-3.4,0c-0.4,0-0.5-0.1-0.5-0.5c0-2.3,0-4.5,0-6.8c0-0.5,0.2-0.6,0.6-0.6c0.7,0,1.4,0,2,0
				c0.3,0,0.4-0.1,0.4-0.4c0-0.4,0-0.9,0-1.3c0-0.4-0.1-0.6-0.6-0.6C102.1,9.9,101.3,9.9,100.4,9.9z"/>
			<path fill="#FFFFFF" d="M76.6,22.3c0-0.6,0-1.2,0-1.7c0-0.4-0.1-0.6-0.6-0.6c-1.1,0-2.2,0-3.4,0c-0.3,0-0.5-0.1-0.5-0.5
				c0-2.3,0-4.6,0-6.9c0-0.4,0.2-0.5,0.5-0.5c0.7,0,1.4,0,2.1,0c0.1,0,0.4-0.2,0.4-0.3c0-0.6,0-1.3,0-2c-0.9,0-1.7,0-2.5,0
				c-0.4,0-0.5-0.1-0.5-0.5c0-2.1,0-4.1,0-6.2c0-0.4,0.1-0.6,0.6-0.6c1.1,0,2.2,0,3.3,0c0.2,0,0.5-0.1,0.5-0.2c0-0.7,0-1.3,0-2
				c-2.6,0-5.1,0-7.6,0c0,7.3,0,14.7,0,22C71.5,22.3,74,22.3,76.6,22.3z"/>
			<path fill="#FFFFFF" d="M164.8,22.3c0-7.4,0-14.6,0-22c-1.1,0-2.1,0-3.2,0c0,7.3,0,14.6,0,22C162.6,22.3,163.7,22.3,164.8,22.3z"
				/>
			<path fill="#FFFFFF" d="M187.4,0c0.4,0.1,0.8,0.2,1.1,0.3c1.7,0.5,2.6,1.8,2.6,3.6c0,1.2,0,2.3,0,3.5c0,0.2,0,0.4,0,0.6
				c-0.9,0-1.7,0-2.6,0c-0.4,0-0.3-0.3-0.3-0.5c0-1.2,0-2.5,0-3.7c0-0.9-0.5-1.3-1.4-1.3c-1,0-1.4,0.4-1.4,1.3c0,5.1,0,10.2,0,15.3
				c0,0.5,0.1,1,0.7,1.2c0.6,0.3,1.4,0.2,1.8-0.2c0.2-0.2,0.3-0.5,0.3-0.7c0-1.8,0-3.6,0-5.5c0,0,0-0.1-0.1-0.2
				c-0.4,0-0.7,0-1.1-0.1c0-0.6,0-1.2,0-1.8c0-0.1,0.2-0.3,0.3-0.3c1.3,0,2.5,0,3.8,0c0.1,0,0.3,0.2,0.3,0.3c0,3.4,0,6.8,0,10.2
				c0,0,0,0.1-0.1,0.2c-0.8-0.1-1.8,0.4-2.2-0.9c-0.7,0.7-1.4,1.1-2.3,1.1c-0.8,0-1.7,0-2.5-0.3c-1.5-0.4-2.3-1.7-2.3-3.3
				c0-5.1,0-10.1,0-15.2c0-1.6,1.1-2.9,2.8-3.5c0.4-0.1,0.8-0.2,1.3-0.3C186.6,0,187,0,187.4,0z"/>
			<path fill="#FFFFFF" d="M114.9,15.4c0-0.3,0.1-0.6,0.1-0.9c0.7-4.6,1.3-9.2,2-13.8c0-0.2,0.2-0.4,0.4-0.4c1.3,0,2.6,0,4,0
				c0,7.3,0,14.6,0,22c-1,0-2,0-3.1,0c0-5.1,0-10.2,0-15.3c0,0-0.1,0-0.1,0c0,0.2,0,0.3-0.1,0.5c-0.4,3.1-0.9,6.2-1.3,9.3
				c-0.3,1.7-0.6,3.4-0.8,5.1c-0.1,0.3-0.2,0.4-0.5,0.4c-0.6,0-1.1,0-1.7,0c-0.3,0-0.5-0.1-0.5-0.4c-0.6-4.2-1.3-8.4-1.9-12.6
				c-0.1-0.7-0.1-1.3-0.2-2c0-0.2-0.1-0.4-0.1-0.6c0,0-0.1,0-0.1,0c0,5.2,0,10.3,0,15.5c-1,0-1.9,0-2.8,0c0-7.3,0-14.6,0-22
				c0.1,0,0.2,0,0.4,0c1.2,0,2.4,0,3.7,0c0.3,0,0.5,0.1,0.5,0.4c0.4,2.9,0.9,5.7,1.3,8.6C114.2,11.3,114.5,13.4,114.9,15.4
				C114.8,15.4,114.8,15.4,114.9,15.4z"/>
			<path fill="#FFFFFF" d="M80,0.3c1.4,0,2.8,0,4.2,0c0.1,0,0.3,0.3,0.3,0.4c0.3,1.8,0.6,3.5,0.8,5.3c0.4,2.8,0.8,5.6,1.2,8.4
				c0,0.3,0.1,0.6,0.2,1c0.1-0.7,0.2-1.5,0.3-2.2c0.6-4.2,1.2-8.3,1.8-12.5c0-0.2,0-0.5,0.4-0.5c1.3,0,2.6,0,4,0c0,7.3,0,14.7,0,22
				c-1,0-2,0-3,0c0-5.3,0-10.6,0-15.9c0,0,0,0,0,0c-0.8,5.3-1.6,10.6-2.4,15.9c-0.8,0-1.6,0-2.3,0c-0.1,0-0.3-0.3-0.3-0.4
				c-0.2-1.5-0.5-3-0.7-4.5c-0.4-2.6-0.8-5.2-1.2-7.8c-0.1-1-0.2-2-0.4-3c0,5.2,0,10.4,0,15.6c-1,0-1.9,0-2.8,0C80,15,80,7.7,80,0.3
				z"/>
			<path fill="#FFFFFF" d="M171.6,8.7c0,4.5,0,9.1,0,13.7c-0.9,0-1.8,0-2.7,0c-0.1,0-0.2-0.2-0.2-0.3c0-0.1,0-0.3,0-0.4
				c0-6.9,0-13.8,0-20.7c0-0.7,0-0.7,0.7-0.7c0.7,0,1.4,0,2.2,0c0.3,0,0.5,0.1,0.6,0.4c1.1,4.4,2.3,8.8,3.4,13.2c0,0,0,0,0.1,0.2
				c0-4.6,0-9.2,0-13.8c0.9,0,1.8,0,2.6,0c0.1,0,0.2,0.2,0.3,0.3c0,0.1,0,0.2,0,0.3c0,6.9,0,13.9,0,20.8c0,0.5-0.1,0.7-0.6,0.6
				c-0.5,0-1.1,0-1.6,0c-0.2,0-0.4-0.2-0.4-0.3c-1.2-3.7-2.4-7.3-3.6-11c-0.2-0.8-0.4-1.6-0.6-2.4C171.7,8.7,171.6,8.7,171.6,8.7z"
				/>
			<path fill="#FFFFFF" d="M125.3,0.3c0.9,0,1.8,0,2.7,0c1.2,0,2.3,0,3.4,0.2c1.7,0.2,2.7,1.5,2.7,3.2c0,1.5,0,3,0,4.5
				c0,1.3-0.4,2.3-1.7,2.8c0.2,0.1,0.4,0.3,0.5,0.4c0.8,0.5,1.2,1.2,1.2,2.2c0,1.8,0,3.5,0,5.3c0,1.8-1,3-2.8,3.3
				c-1,0.1-2.1,0.1-3.1,0.2c-1,0-2,0-3,0C125.3,15,125.3,7.7,125.3,0.3z M131,16.2c0-0.7,0-1.4,0-2.1c0-1.7-0.2-1.9-1.9-1.8
				c-0.4,0-0.5,0.1-0.5,0.5c0,2,0,4,0,6c0,1.3,0,1.3,1.3,1.3c0.7,0,1.1-0.4,1.1-1.1C131,18,131,17.1,131,16.2z M128.6,2.7
				c0,0.7,0,1.3,0,1.9c0,1.7,0,3.4,0,5c0,0.2,0.1,0.4,0.2,0.4c0.4,0,0.9,0.1,1.3,0c0.5-0.1,0.8-0.4,0.8-0.9c0-1.8,0-3.7,0-5.5
				c0-0.5-0.3-0.8-0.8-0.9C129.7,2.7,129.2,2.7,128.6,2.7z"/>
			<path fill="#FFFFFF" d="M156,11.7c0.3,0.2,0.6,0.4,0.8,0.6c0.6,0.5,0.9,1.1,0.9,2c0,1.6,0,3.3,0,4.9c0,0.9,0,1.7,0.5,2.5
				c0.1,0.2,0.1,0.4,0.1,0.7c-0.9,0-1.7,0.1-2.5,0c-0.8-0.1-1-0.8-1.1-1.4c-0.1-0.5-0.2-1.1-0.2-1.7c0-1.7,0-3.5,0-5.2
				c0-0.8-0.4-1.2-1.2-1.2c-1.3,0-1.3,0-1.3,1.2c0,2.6,0,5.1,0,7.7c0,0.2,0,0.4,0,0.6c-1.1,0-2.1,0-3.2,0c0-7.3,0-14.6,0-22
				c0.5,0,1,0,1.5,0c1.1,0,2.3,0,3.4,0c0.5,0,1,0.1,1.4,0.2c1.6,0.4,2.5,1.5,2.5,3.2c0,1.7,0,3.5,0,5.2c0,1.2-0.4,2-1.4,2.6
				C156.2,11.6,156.1,11.6,156,11.7z M152.1,2.7c0,0.2,0,0.4,0,0.6c0,2.1,0,4.2,0,6.3c0,1.1-0.1,0.9,1,0.9c1.1,0,1.4-0.3,1.4-1.4
				c0-1.7,0-3.4,0-5.1c0-0.2,0-0.4,0-0.6c-0.1-0.4-0.3-0.7-0.7-0.7C153.2,2.7,152.7,2.7,152.1,2.7z"/>
			<path fill="#FFFFFF" d="M56.3,0.3c1,0,2,0,3,0c1.1,0,2.2,0,3.3,0.2c1.7,0.3,2.6,1.5,2.7,3.2c0,1.8,0,3.6,0,5.4
				c0,1.1-0.4,1.9-1.4,2.4c-0.1,0.1-0.2,0.1-0.3,0.2c0.1,0.1,0.2,0.1,0.3,0.2c1.1,0.5,1.5,1.4,1.5,2.6c0,1.8,0,3.5,0,5.3
				c0,0.6,0.2,1.2,0.4,1.8c0.2,0.7,0.1,0.9-0.5,0.9c-0.3,0-0.6,0-0.9,0c-1.3,0-1.8-0.5-2-1.7c-0.1-0.3-0.1-0.7-0.1-1
				c0-1.8,0-3.6,0-5.5c0-1.1-0.4-1.5-1.5-1.5c-1.2,0-1-0.2-1,1c0,2.7,0,5.4,0,8c0,0.4-0.1,0.6-0.5,0.5c-0.8,0-1.6,0-2.4,0
				c-0.3,0-0.4-0.1-0.4-0.4c0-0.6,0-1.3,0-1.9c0-6.3,0-12.7,0-19C56.3,0.9,56.3,0.6,56.3,0.3z M59.5,6.6c0,1.2,0,2.3,0,3.5
				c0,0.4,0.1,0.6,0.5,0.5c0.1,0,0.2,0,0.4,0c1.2,0,1.5-0.3,1.5-1.5c0-1.5,0-3,0-4.5c0-1.8-0.2-1.9-1.9-1.9c-0.4,0-0.5,0.1-0.5,0.5
				C59.5,4.3,59.5,5.4,59.5,6.6z"/>
			<path fill="#FFFFFF" d="M137.9,0.4c2.5,0,5,0,7.5,0c0,0.7,0,1.5,0,2.3c-1.2,0-2.3,0-3.5,0c-0.8,0-0.8,0-0.8,0.8c0,2,0,4,0,5.9
				c0,0.4,0.1,0.6,0.6,0.6c0.8,0,1.6,0,2.5,0c0,0.7,0,1.3,0,2c0,0.1-0.2,0.3-0.4,0.3c-0.7,0-1.4,0-2.1,0c-0.4,0-0.5,0.1-0.5,0.5
				c0,2.3,0,4.5,0,6.8c0,0.4,0.1,0.5,0.5,0.5c1.2,0,2.5,0,3.8,0c0,0.8,0,1.5,0,2.3c-2.5,0-5,0-7.5,0C137.9,15,137.9,7.7,137.9,0.4z"
				/>
			<path fill="#FFFFFF" d="M100.4,9.9c0.9,0,1.7,0,2.5,0c0.4,0,0.6,0.1,0.6,0.6c0,0.4,0,0.9,0,1.3c0,0.3-0.1,0.4-0.4,0.4
				c-0.7,0-1.4,0-2,0c-0.4,0-0.6,0.1-0.6,0.6c0,2.3,0,4.5,0,6.8c0,0.4,0.1,0.6,0.5,0.5c1.1,0,2.2,0,3.4,0c0.4,0,0.5,0.1,0.5,0.5
				c0,0.6,0,1.1,0,1.8c-2.6,0-5.1,0-7.6,0c0-7.3,0-14.6,0-22c2.5,0,5,0,7.6,0c0,0.7,0,1.3,0,2c0,0.4-0.3,0.3-0.5,0.3
				c-1.1,0-2.2,0-3.3,0c-0.4,0-0.6,0.1-0.6,0.6c0,2,0,4.1,0,6.1C100.4,9.5,100.4,9.7,100.4,9.9z"/>
			<path fill="#FFFFFF" d="M76.6,22.3c-2.6,0-5,0-7.6,0c0-7.3,0-14.6,0-22c2.5,0,5,0,7.6,0c0,0.7,0,1.3,0,2c0,0.1-0.3,0.2-0.5,0.2
				c-1.1,0-2.2,0-3.3,0c-0.4,0-0.6,0.1-0.6,0.6c0,2.1,0,4.1,0,6.2c0,0.4,0.1,0.6,0.5,0.5c0.8,0,1.6,0,2.5,0c0,0.7,0,1.4,0,2
				c0,0.1-0.3,0.3-0.4,0.3c-0.7,0-1.4,0-2.1,0c-0.4,0-0.5,0.1-0.5,0.5c0,2.3,0,4.6,0,6.9c0,0.3,0.1,0.5,0.5,0.5c1.1,0,2.2,0,3.4,0
				c0.4,0,0.6,0.1,0.6,0.6C76.6,21.2,76.6,21.7,76.6,22.3z"/>
			<path fill="#FFFFFF" d="M164.8,22.3c-1.1,0-2.1,0-3.2,0c0-7.3,0-14.6,0-22c1.1,0,2.1,0,3.2,0C164.8,7.7,164.8,15,164.8,22.3z"/>
		</g>
	</g>
	<g>
		<path fill="#CBCBCB" d="M56.7,36.2L55.7,39h-1.2l3-8.8h1.4l3,8.8h-1.2l-0.9-2.8H56.7z M59.5,35.3l-0.9-2.5
			c-0.2-0.6-0.3-1.1-0.5-1.6h0c-0.1,0.5-0.3,1.1-0.4,1.6l-0.9,2.5H59.5z"/>
		<path fill="#CBCBCB" d="M67.3,30.3c0.5-0.1,1.3-0.2,2.2-0.2c1.1,0,1.9,0.3,2.5,0.7c0.5,0.4,0.8,1.1,0.8,1.8c0,0.8-0.2,1.4-0.7,1.9
			c-0.6,0.6-1.6,1-2.7,1c-0.3,0-0.6,0-0.9-0.1V39h-1.1V30.3z M68.4,34.5c0.2,0.1,0.6,0.1,0.9,0.1c1.4,0,2.2-0.7,2.2-1.9
			c0-1.2-0.8-1.7-2.1-1.7c-0.5,0-0.9,0-1.1,0.1V34.5z"/>
		<path fill="#CBCBCB" d="M74.8,30.3c0.6-0.1,1.4-0.2,2.2-0.2c1.2,0,2,0.2,2.5,0.7c0.4,0.4,0.7,1,0.7,1.7c0,1.2-0.7,1.9-1.7,2.2v0
			c0.7,0.2,1.1,0.9,1.3,1.8c0.3,1.2,0.5,2.1,0.7,2.4h-1.2c-0.1-0.2-0.3-1-0.6-2.1c-0.3-1.2-0.7-1.7-1.8-1.7H76V39h-1.1V30.3z
			 M76,34.3h1.2c1.2,0,2-0.7,2-1.7c0-1.1-0.8-1.6-2-1.6c-0.5,0-0.9,0.1-1.1,0.1V34.3z"/>
		<path fill="#CBCBCB" d="M90,34.5c0,3-1.8,4.6-4.1,4.6c-2.3,0-3.9-1.8-3.9-4.4c0-2.8,1.7-4.6,4.1-4.6C88.4,30.1,90,31.9,90,34.5z
			 M83.2,34.7c0,1.9,1,3.5,2.8,3.5c1.8,0,2.8-1.7,2.8-3.6c0-1.7-0.9-3.6-2.8-3.6C84.1,31,83.2,32.7,83.2,34.7z"/>
		<path fill="#CBCBCB" d="M93.9,30.2H95v5.9c0,2.3-1.1,3-2.7,3c-0.4,0-0.9-0.1-1.2-0.2l0.2-0.9c0.2,0.1,0.6,0.2,0.9,0.2
			c1,0,1.6-0.5,1.6-2.2V30.2z"/>
		<path fill="#CBCBCB" d="M102.1,34.9h-3.4V38h3.8V39h-4.9v-8.8h4.7v0.9h-3.6v2.8h3.4V34.9z"/>
		<path fill="#CBCBCB" d="M110.7,38.7c-0.4,0.2-1.2,0.4-2.3,0.4c-2.5,0-4.3-1.6-4.3-4.4c0-2.7,1.9-4.6,4.6-4.6
			c1.1,0,1.8,0.2,2.1,0.4l-0.3,0.9c-0.4-0.2-1-0.4-1.8-0.4c-2.1,0-3.4,1.3-3.4,3.6c0,2.1,1.2,3.5,3.4,3.5c0.7,0,1.4-0.1,1.8-0.4
			L110.7,38.7z"/>
		<path fill="#CBCBCB" d="M114.8,31.2h-2.7v-1h6.5v1H116V39h-1.1V31.2z"/>
		<path fill="#CBCBCB" d="M131.2,34.5c0,3-1.8,4.6-4.1,4.6c-2.3,0-3.9-1.8-3.9-4.4c0-2.8,1.7-4.6,4.1-4.6
			C129.6,30.1,131.2,31.9,131.2,34.5z M124.4,34.7c0,1.9,1,3.5,2.8,3.5c1.8,0,2.8-1.7,2.8-3.6c0-1.7-0.9-3.6-2.8-3.6
			C125.3,31,124.4,32.7,124.4,34.7z"/>
		<path fill="#CBCBCB" d="M133.3,30.2h4.7v0.9h-3.6v2.9h3.3V35h-3.3v4h-1.1V30.2z"/>
		<path fill="#CBCBCB" d="M143.7,30.2h4.7v0.9h-3.6v2.9h3.3V35h-3.3v4h-1.1V30.2z"/>
		<path fill="#CBCBCB" d="M158.1,34.5c0,3-1.8,4.6-4.1,4.6c-2.3,0-3.9-1.8-3.9-4.4c0-2.8,1.7-4.6,4.1-4.6
			C156.6,30.1,158.1,31.9,158.1,34.5z M151.4,34.7c0,1.9,1,3.5,2.8,3.5c1.8,0,2.8-1.7,2.8-3.6c0-1.7-0.9-3.6-2.8-3.6
			C152.3,31,151.4,32.7,151.4,34.7z"/>
		<path fill="#CBCBCB" d="M160.3,30.3c0.6-0.1,1.4-0.2,2.2-0.2c1.2,0,2,0.2,2.5,0.7c0.4,0.4,0.7,1,0.7,1.7c0,1.2-0.7,1.9-1.7,2.2v0
			c0.7,0.2,1.1,0.9,1.3,1.8c0.3,1.2,0.5,2.1,0.7,2.4h-1.2c-0.1-0.2-0.3-1-0.6-2.1c-0.3-1.2-0.7-1.7-1.8-1.7h-1.1V39h-1.1V30.3z
			 M161.4,34.3h1.2c1.2,0,2-0.7,2-1.7c0-1.1-0.8-1.6-2-1.6c-0.5,0-0.9,0.1-1.1,0.1V34.3z"/>
		<path fill="#CBCBCB" d="M167.9,30.3c0.7-0.1,1.5-0.2,2.4-0.2c1.6,0,2.8,0.4,3.5,1.1c0.8,0.7,1.2,1.7,1.2,3.1
			c0,1.4-0.4,2.6-1.3,3.4c-0.8,0.8-2.2,1.3-3.9,1.3c-0.8,0-1.5,0-2.1-0.1V30.3z M169,38.1c0.3,0.1,0.7,0.1,1.1,0.1
			c2.4,0,3.7-1.4,3.7-3.7c0-2.1-1.2-3.4-3.5-3.4c-0.6,0-1,0.1-1.3,0.1V38.1z"/>
		<path fill="#CBCBCB" d="M178.7,30.1c-0.3,1.1-0.9,2.5-1.2,3.1l-0.7,0.1c0.3-0.8,0.6-2.1,0.8-3.1L178.7,30.1z"/>
		<path fill="#CBCBCB" d="M180.4,37.6c0.5,0.3,1.2,0.6,2,0.6c1.2,0,1.8-0.6,1.8-1.5c0-0.8-0.5-1.3-1.7-1.7c-1.4-0.5-2.3-1.2-2.3-2.5
			c0-1.4,1.1-2.4,2.8-2.4c0.9,0,1.5,0.2,1.9,0.4l-0.3,0.9c-0.3-0.2-0.9-0.4-1.7-0.4c-1.2,0-1.7,0.7-1.7,1.3c0,0.8,0.5,1.2,1.7,1.7
			c1.5,0.6,2.2,1.3,2.2,2.6c0,1.4-1,2.5-3.1,2.5c-0.8,0-1.8-0.2-2.2-0.6L180.4,37.6z"/>
		<path fill="#CBCBCB" d="M192.2,31.2h-2.7v-1h6.5v1h-2.7V39h-1.1V31.2z"/>
		<path fill="#CBCBCB" d="M198.7,30.2v3.7h4.2v-3.7h1.1V39H203v-4.1h-4.2V39h-1.1v-8.8H198.7z"/>
		<path fill="#CBCBCB" d="M211.3,34.9h-3.4V38h3.8V39h-4.9v-8.8h4.7v0.9h-3.6v2.8h3.4V34.9z"/>
		<path fill="#CBCBCB" d="M215.2,36.2l-0.9,2.8h-1.2l3-8.8h1.4l3,8.8h-1.2l-0.9-2.8H215.2z M218.1,35.3l-0.9-2.5
			c-0.2-0.6-0.3-1.1-0.5-1.6h0c-0.1,0.5-0.3,1.1-0.4,1.6l-0.9,2.5H218.1z"/>
		<path fill="#CBCBCB" d="M223.1,31.2h-2.7v-1h6.5v1h-2.7V39h-1.1V31.2z"/>
		<path fill="#CBCBCB" d="M228.5,30.3c0.6-0.1,1.4-0.2,2.2-0.2c1.2,0,2,0.2,2.5,0.7c0.4,0.4,0.7,1,0.7,1.7c0,1.2-0.7,1.9-1.7,2.2v0
			c0.7,0.2,1.1,0.9,1.3,1.8c0.3,1.2,0.5,2.1,0.7,2.4H233c-0.1-0.2-0.3-1-0.6-2.1c-0.3-1.2-0.7-1.7-1.8-1.7h-1.1V39h-1.1V30.3z
			 M229.6,34.3h1.2c1.2,0,2-0.7,2-1.7c0-1.1-0.8-1.6-2-1.6c-0.5,0-0.9,0.1-1.1,0.1V34.3z"/>
		<path fill="#CBCBCB" d="M240.7,34.9h-3.4V38h3.8V39h-4.9v-8.8h4.7v0.9h-3.6v2.8h3.4V34.9z"/>
	</g>
	<g>
		<path fill="#FFFFFF" d="M10.1,16.9c-0.2-0.4-0.7-0.8-1.1-1.1c-0.4-0.2-0.7-0.1-0.8,0.5c-0.1,0.4-0.2,0.8-0.4,1.1
			c-0.4,0.6-0.6,1.1-0.3,1.7c0.1,0.1,0,0.3,0,0.6c-0.3-0.2-0.5-0.3-0.6-0.4c-0.3-0.3-0.7-0.5-1.2-0.3c-0.5,0.3-0.7,0-0.8-0.5
			c-0.1-0.5-0.1-0.9-0.2-1.4c-0.2-0.7-0.5-0.8-1-0.2c-0.2,0.2-0.4,0.4-0.5,0.6C2.9,17,3,15.9,3.6,15.4c0.8-0.7,1.6-1.4,2.9-1.4
			c0.2,0,0.4-0.2,0.6-0.3c-0.2-0.1-0.3-0.3-0.5-0.4c-0.2-0.1-0.4-0.1-0.6-0.1c-1.7,0.1-3.6,2.1-3.5,3.7c0,0.6,0.2,1.1,0.3,1.7
			c0.5,1.8,1.1,3.5,2.3,4.9c0.3,0.3,0.6,0.6,0.9,0.8c0.7,0.5,1.6,0.3,2.3-0.4c0.2-0.2,0.4-0.2,0.7-0.3c0,0.3,0.1,0.5,0,0.7
			c-0.5,1.2-1.6,1.9-2.9,1.2c-0.6-0.3-0.9-0.2-1.1,0.5c-0.4,1.3-0.8,2.6-1.1,3.9c-0.2,0.6-0.5,0.9-1.2,0.8C2.5,30.8,2.3,31,2,31
			c0.2,0.3,0.2,0.6,0.5,0.8c2.1,1.5,4.2,2.9,6.3,4.3c1.2,0.8,2.3,1.7,3.4,2.6c0.1,0.1,0.2,0.2,0.4,0.4c-0.1,0-0.2,0-0.2,0h6.3
			c-0.2,0-0.4,0-0.6-0.1c-1-0.3-1.9-0.8-2.8-1.2c-1.1-0.5-2.1-1.2-3.2-1.7c-0.5-0.3-0.9-0.5-0.8-1.3c0.1-0.4-0.3-1-0.6-1.4
			c-0.8-1-1.5-2.1-1.9-3.3c0-0.1-0.1-0.2-0.1-0.2c0-0.3,0.1-0.7,0.1-1c0.3,0.1,0.7,0.2,1,0.3c0.3,0.1,0.6,0.2,0.9,0.3
			c0.1-0.3,0.3-0.7,0.3-1c-0.5-2-0.1-3.9,0-5.9C11.1,20.6,11,18.7,10.1,16.9z M7.8,21.4c-0.4,0-0.8-0.1-1.1-0.3
			C6.5,21,6.3,20.7,6,20.3c0.3,0,0.5-0.1,0.7-0.1c0.3,0,0.6,0,0.8,0.1c0.2,0.1,0.5,0.3,0.6,0.5C8.2,21,7.9,21.4,7.8,21.4z"/>
		<path fill="#FFFFFF" d="M0,39L0,39l0.3,0C0.2,39,0.1,39,0,39z"/>
		<path fill="#FFFFFF" d="M21.7,15.6c-0.1,0.1-0.1,0.2-0.1,0.3c0,0.1,0.2,0.2,0.3,0.1c0.4-0.2,0.8-0.4,1.2-0.6
			C22.5,15.1,22,15.3,21.7,15.6z"/>
		<path fill="#FFFFFF" d="M26.7,0.5c0.3,0.1,0.5,0.3,0.5,0.7c0,1.8,0.1,3.6-1.3,5c-0.1,0.1-0.2,0.4-0.3,0.5
			c-0.1,0.2-0.1,0.3-0.2,0.6c-0.2-0.2-0.3-0.4-0.4-0.5c-0.9-1.9-2.5-3.2-4.3-4.1c-1.4-0.8-2.9-1.5-4.3-2.2c0,0,0,0,0.1,0h-4.3
			c-0.2,0.3-0.4,0.5-0.5,0.7c-0.1,0.3-0.2,0.7-0.2,1c0.1,0.8,0.2,1.6,0.2,2.4c0,0.2-0.2,0.5-0.4,0.7c-1.4,1-2,3-1.5,4.6
			c0.5,1.3,1.2,2.4,2.3,3.3c0.5,0.4,0.8,1,1.1,1.6c0.1,0.2,0.1,0.4,0.2,0.5c0.4,0.6,0.3,0.9-0.3,1.4c-0.8,0.5-0.7,1.6,0.1,2.2
			c0.7,0.5,1.5,1,2.2,1.5c1,0.7,1,1.2,0.7,2.4c-0.7,2.3-0.9,4.7,0.2,7c0.2,0.3,0.2,0.7,0.3,1c0.1,0.3,0.3,0.6,0.5,0.9
			c0.5,0.5,1.1,0.4,1.4-0.3c0.2-0.6,0.6-0.7,1.2-0.5c0.6,0.1,1.2,0.1,1.8,0.1c0.5,0,1.1,0,1.6,0c0.5,0,1,0,1.4-0.5
			c-0.2-0.2-0.4-0.4-0.6-0.7c-0.2-0.3-0.4-0.7-0.3-0.9c0.1-0.2,0.6-0.3,0.9-0.3c0.3-0.1,0.6,0,0.8,0c0.2,0,0.5-0.2,0.5-0.4
			c0-0.1-0.2-0.4-0.3-0.5c-1.2-0.7-2.3-0.5-3.3,0.6c-0.2,0.2-0.4,0.4-0.7,0.4c0.3-0.5,0.6-1.1,1-1.6c0.1-0.1,0.2-0.2,0.3-0.1
			c1.2,0.3,2.4-0.1,3.5-0.4c0.1,0,0.2,0,0.3,0c0,0.6,0,1.3-0.1,1.8c0,0.3-0.3,0.5-0.6,0.7c-0.7,0.4-0.7,0.6-0.2,1.1
			c0.3,0.3,0.6,0.5,0.9,0.7c0.7,0.6,1,1.3,1,2.2c0,1.7-1,2.8-2.3,3.5c-0.3,0.2-0.7,0.2-1,0.2c-0.8-0.1-1.7-0.3-2.5-0.4
			c-1.5-0.2-2.3,0.6-2,2.1c0,0.2,0.1,0.3,0.1,0.6h18.6V0.5H26.7z M27.2,11.4c0.6,0.3,0.9,0.9,1,1.5c0.1,0.2-0.5,0.6-0.8,1
			c-0.2,0.3-0.4,0.6-0.5,1c-0.1,0.2,0,0.5,0,0.7c-0.1,0-0.1,0-0.2,0.1c-0.1-0.2-0.3-0.3-0.2-0.5c0.3-0.8,0-1.7,0.7-2.4
			C27.4,12.5,27.2,11.9,27.2,11.4z M19.7,25.9c0.2-0.9,0.9-1.5,1.6-1.3C20.7,25.1,20.3,25.5,19.7,25.9z M19.7,17.4
			c0-0.4-0.1-0.8,0-1c0.1-0.4,0.4-0.7,0.6-1c0.7-0.9,1.5-1.7,2.2-2.6c0.5-0.6,1.1-1,1.9-0.6c0.3,0.1,0.6,0.2,0.9,0.3
			c1,0.3,1.2,1.4,0.5,2.2c-0.4,0.5-0.9,1-1.4,1.5c-0.2,0.2-0.5,0.4-0.9,0.7c0,0,0.2,0.1,0.3,0.3c-0.3,0.7-0.5,1.3-0.8,2
			C23.2,19,23.1,19,23,19c0.1-0.2,0.1-0.4,0.2-0.6c-0.5-0.4-1.8-0.4-1-1.7C21.2,16.1,20.6,16.9,19.7,17.4z M30.7,22.9
			c-0.4,0.6-1,0.9-1.7,0.8c0,0-0.1,0-0.1,0c-1.7-0.2-1.8-0.2-1.7,1.5c0,0.2-0.1,0.4-0.1,0.6c-0.1,0-0.2,0-0.2,0
			c-0.3-1.1-1.2-1.5-1.9-2.2c-0.4-0.3-0.8-0.3-1.1,0c-0.3,0.4-0.6,0.8-0.8,1.2c-0.3,0.6-0.5,0.8-1.1,1c1-1.7,2-3.3,2.9-4.9
			c0.1,0,0.1,0.1,0.2,0.1c-0.1,0.2-0.2,0.4-0.3,0.6c-0.4,0.8,0.1,1.6,0.9,1.4c1.2-0.3,2.4-0.2,3.6-0.2c0.8,0,1.3-0.6,1.3-1.4
			c0-0.2,0-0.4,0-0.8C31.2,21.5,31.2,22.2,30.7,22.9z"/>
	</g>
</g>
</svg>
